<?xml version="1.0" encoding="UTF-8"?>
<svg version="1.1" xmlns="http://www.w3.org/2000/svg" width="800" height="800">
<path d="M0 0 C1.60278263 -0.00115616 3.20556499 -0.00274697 4.80834681 -0.00472724 C9.15740128 -0.00885451 13.50643345 -0.00685996 17.85548794 -0.00374103 C22.57004699 -0.00145914 27.28460245 -0.00498082 31.99916077 -0.00772095 C41.22478191 -0.01215222 50.45039487 -0.01121271 59.67601632 -0.00830831 C67.20368484 -0.00603826 74.73135109 -0.00574867 82.25901985 -0.00683212 C83.33581407 -0.00698536 84.41260829 -0.00713859 85.52203264 -0.00729647 C87.71092188 -0.00761626 89.89981112 -0.00794047 92.08870036 -0.00826906 C112.59839924 -0.01111758 133.10809364 -0.00784958 153.61779178 -0.00246869 C171.08264491 0.00197265 188.54749136 0.00124442 206.01234436 -0.00338745 C226.39140973 -0.00878985 246.77047115 -0.01081569 267.14953715 -0.00777519 C269.34234242 -0.00745673 271.53514769 -0.00714236 273.72795296 -0.00683212 C274.80616472 -0.00667785 275.88437648 -0.00652357 276.99526132 -0.00636462 C284.46231569 -0.00551431 291.92936746 -0.00695051 299.39642143 -0.00931168 C376.50730031 -0.03146469 376.50730031 -0.03146469 412.77015686 0.57278442 C413.98195173 0.59219644 415.1937466 0.61160846 416.44226253 0.63160872 C419.78639786 0.68727261 423.13032204 0.74954261 426.47427368 0.81524658 C427.41696503 0.83154216 428.35965638 0.84783774 429.33091414 0.86462712 C435.66636512 1.00373187 441.93331987 1.48109609 448.23670959 2.12698364 C448.23670959 2.78698364 448.23670959 3.44698364 448.23670959 4.12698364 C449.07975647 4.25975708 449.92280334 4.39253052 450.79139709 4.52932739 C451.88710022 4.70592896 452.98280334 4.88253052 454.11170959 5.06448364 C455.74752991 5.3255188 455.74752991 5.3255188 457.41639709 5.59182739 C472.75229289 8.50182424 488.29937879 21.78231608 499.23670959 32.12698364 C499.94956116 32.78698364 500.66241272 33.44698364 501.39686584 34.12698364 C519.74034599 51.65755426 529.63963902 77.85914608 530.50774384 102.92856789 C530.64906604 109.80558575 530.61995946 116.68182055 530.59315491 123.55984497 C530.59394717 126.19310478 530.59592537 128.82633951 530.59934998 131.45959473 C530.60494125 137.82946836 530.59475034 144.19922005 530.57906201 150.56907294 C530.561402 158.00299358 530.56010024 165.43689157 530.55944642 172.8708299 C530.55776393 186.14040399 530.54201527 199.40992305 530.51795959 212.67947388 C530.49468363 225.52843686 530.48053076 238.37736498 530.47694397 251.22634888 C530.4767212 252.01859955 530.47649844 252.81085022 530.47626892 253.62710849 C530.47582628 255.22335404 530.47538426 256.81959959 530.47494285 258.41584514 C530.4746135 259.59722927 530.4746135 259.59722927 530.4742775 260.80247974 C530.47406151 261.58820145 530.47384552 262.37392316 530.47362299 263.18345462 C530.46991513 275.47107607 530.45855826 287.75869198 530.4461471 300.0463073 C530.44172721 304.48465596 530.43828266 308.9230041 530.43552497 313.36135409 C530.43065945 321.06048159 530.42049801 328.7595776 530.40469742 336.45869064 C530.40019344 339.00956546 530.39734028 341.56044383 530.39628983 344.1113224 C530.39452994 347.60292257 530.38661042 351.09445767 530.37715149 354.58604431 C530.37845121 356.08621675 530.37845121 356.08621675 530.37977719 357.6166957 C530.35198262 364.49410714 529.89617355 371.28208964 529.23670959 378.12698364 C528.57670959 378.12698364 527.91670959 378.12698364 527.23670959 378.12698364 C527.12327209 379.11698364 527.00983459 380.10698364 526.89295959 381.12698364 C523.41184232 405.20471149 506.70775633 426.5104116 487.86903381 440.92044067 C468.85861274 454.97211596 446.70344034 461.29984265 423.26844788 461.25828552 C422.19721743 461.26040124 421.12598698 461.26251695 420.022295 461.26469678 C416.45052693 461.27066463 412.87879452 461.26969894 409.30702209 461.26882935 C406.73904867 461.27186289 404.17107578 461.27538488 401.60310364 461.27935791 C396.08170072 461.28744535 390.56030239 461.29240579 385.03889465 461.29564857 C376.30679904 461.30116356 367.57474208 461.3180785 358.84266663 461.33699036 C355.85093695 461.34334593 352.85920718 461.34965449 349.86747742 461.35596752 C349.1199618 461.35755128 348.37244619 461.35913505 347.60227859 461.3607668 C339.10607606 461.37867915 330.60987084 461.39491857 322.11366272 461.40994263 C320.94952658 461.41200643 320.94952658 461.41200643 319.76187253 461.41411193 C307.17819967 461.43605418 294.59453689 461.44680252 282.01084828 461.45431338 C269.07522289 461.46238992 256.13968354 461.4856939 243.20410728 461.52226704 C235.2336124 461.54425898 227.26329454 461.55396689 219.29277086 461.54776671 C213.18416152 461.54421113 207.07577214 461.56148344 200.96721649 461.58644485 C198.46508474 461.5933634 195.96292341 461.59347612 193.46079254 461.58624458 C190.04184459 461.57736179 186.62384253 461.59304215 183.20497131 461.61473083 C182.21789751 461.6062883 181.23082371 461.59784576 180.21383858 461.58914739 C164.76295932 461.77005915 155.06012103 472.08415343 144.83045959 482.52932739 C142.06364806 485.30030581 139.17427984 487.84554617 136.19764709 490.38479614 C133.14578971 493.09620728 130.32526193 496.03035511 127.45936584 498.93557739 C124.8096952 501.54799432 122.02498157 503.96000985 119.20155334 506.38088989 C116.42109128 508.85179754 113.84552742 511.50865304 111.23670959 514.15823364 C108.67365731 516.68123823 105.96325136 519.00261182 103.23670959 521.34573364 C100.44785426 523.82955792 97.85983976 526.49409801 95.24061584 529.15432739 C92.65424808 531.70036194 89.92135679 534.04719921 87.17030334 536.41213989 C85.28176362 538.08702664 83.50515312 539.82645951 81.73670959 541.62698364 C79.34617793 544.06088096 76.88624697 546.34053923 74.29920959 548.56448364 C71.49094612 550.98316143 68.83700366 553.48598047 66.23670959 556.12698364 C63.0151241 559.39900492 59.65078814 562.42014419 56.17030334 565.41213989 C53.70531911 567.59825723 51.41781208 569.93257838 49.11170959 572.28372192 C47.30285723 574.06195569 45.43862512 575.72158176 43.51405334 577.37307739 C40.70336839 579.81538101 37.96104103 582.30540776 35.27186584 584.88088989 C34.61637756 585.5080188 33.96088928 586.13514771 33.28553772 586.78128052 C31.96139288 588.05334493 30.64106804 589.32939774 29.32460022 590.60940552 C21.64864685 597.92378306 14.66694985 603.59452095 3.74061584 603.39651489 C-1.72117481 602.80858423 -6.69969907 601.16504601 -10.65782166 597.25588989 C-15.76368451 590.6841102 -17.10528759 584.98916909 -17.38047791 576.81838989 C-17.41801178 575.83496109 -17.45554565 574.85153229 -17.49421692 573.83830261 C-17.99498639 558.70669717 -17.91308141 543.55863575 -17.8936615 528.42068481 C-17.8879604 523.95784675 -17.89134484 519.49506831 -17.8971138 515.03223228 C-17.91671722 497.04126634 -17.89302315 479.09076369 -16.76329041 461.12698364 C-18.5734967 461.17375244 -18.5734967 461.17375244 -20.42027283 461.22146606 C-48.89006932 461.88559163 -73.87872845 452.90866345 -94.79844666 433.30667114 C-102.09156036 426.31753134 -108.10630139 419.00716899 -113.01329041 410.12698364 C-114.58444537 406.92900635 -114.58444537 406.92900635 -117.76329041 405.12698364 C-118.15534662 403.13766139 -118.47786726 401.13438115 -118.76329041 399.12698364 C-119.57400636 396.71610046 -120.43017619 394.32013339 -121.32579041 391.93948364 C-123.76329041 385.45559554 -123.76329041 385.45559554 -123.76329041 382.12698364 C-124.42329041 381.79698364 -125.08329041 381.46698364 -125.76329041 381.12698364 C-126.53792161 376.98415756 -126.62264041 372.72264669 -126.87168884 368.52005005 C-126.91361343 367.8319441 -126.95553802 367.14383814 -126.99873304 366.4348805 C-128.34949394 343.56932773 -128.05531717 320.63508031 -128.03194141 297.74003172 C-128.02732593 291.78825224 -128.03088583 285.83647832 -128.0337958 279.88469894 C-128.0394488 267.39214406 -128.03301901 254.89961892 -128.02219507 242.40706892 C-128.01324316 231.74549578 -128.01483492 221.08396618 -128.02403259 210.4223938 C-128.03478896 197.94874027 -128.03892169 185.47511247 -128.03280807 173.00145495 C-128.02967385 166.43175142 -128.02920747 159.86207198 -128.03588104 153.29236984 C-128.04171496 147.12125451 -128.03754863 140.95022045 -128.02609253 134.77911377 C-128.02347911 132.53397379 -128.02415311 130.28882679 -128.02861786 128.04368973 C-128.04845586 117.04285652 -127.84543807 106.12579376 -126.89555359 95.16107178 C-126.78405956 93.83656779 -126.78405956 93.83656779 -126.67031312 92.48530614 C-125.87273461 84.2657371 -123.6475717 76.83023338 -120.76329041 69.12698364 C-120.47840759 68.25557739 -120.19352478 67.38417114 -119.90000916 66.48635864 C-115.14106906 52.86361068 -105.90469569 41.15097758 -95.76329041 31.12698364 C-94.98598572 30.33936646 -94.20868103 29.55174927 -93.40782166 28.74026489 C-75.53058614 11.58171222 -51.01325457 1.85296447 -26.43599606 0.57242012 C-25.6458807 0.53028726 -24.85576534 0.48815439 -24.04170709 0.44474477 C-16.02588683 0.04593029 -8.02398248 -0.01288541 0 0 Z M-67.76329041 63.12698364 C-68.39750916 63.74057739 -69.03172791 64.35417114 -69.68516541 64.98635864 C-83.18430739 78.96334636 -85.92782942 98.13989226 -85.89700317 116.71955872 C-85.89926873 117.73840757 -85.90153429 118.75725642 -85.9038685 119.80697948 C-85.91016119 123.19580449 -85.90938219 126.58458901 -85.90855408 129.97341919 C-85.91154853 132.41357983 -85.91495173 134.85373999 -85.91873169 137.29389954 C-85.92663263 143.21985096 -85.9297851 149.14579302 -85.93034407 155.07174864 C-85.93082077 159.8935605 -85.93288317 164.71536911 -85.93604469 169.53717995 C-85.94484285 183.23649727 -85.94946542 196.9358068 -85.94871422 210.63512697 C-85.94867426 211.37228098 -85.94863431 212.10943499 -85.94859314 212.868927 C-85.94855226 213.60699102 -85.94851138 214.34505504 -85.94846926 215.10548464 C-85.9480631 227.05780291 -85.95762734 239.01008964 -85.97173151 250.96239879 C-85.98613099 263.26297503 -85.99299972 275.56353591 -85.99213773 287.86412078 C-85.99180698 294.75866232 -85.99450036 301.65317079 -86.00531578 308.5477047 C-86.01542968 315.03613271 -86.01504909 321.52450912 -86.00779915 328.01294136 C-86.00675816 330.38517229 -86.00908714 332.75740765 -86.01515961 335.12963104 C-86.07441805 359.89646988 -84.81052436 382.16813938 -66.45079041 400.93948364 C-49.63740456 417.0417986 -29.62916401 418.35575945 -7.48301697 418.09329224 C0.83861725 418.0295987 8.57823279 418.63043887 16.23670959 422.12698364 C17.36170959 424.00198364 17.36170959 424.00198364 18.23670959 426.12698364 C18.73170959 426.74573364 19.22670959 427.36448364 19.73670959 428.00198364 C23.63771969 433.52841461 23.54004925 439.40511397 23.55555725 445.89602661 C23.56560287 446.86250626 23.5756485 447.8289859 23.58599854 448.82475281 C23.61678789 452.00621977 23.63385401 455.18760273 23.65077209 458.36917114 C23.66948714 460.58020752 23.6890608 462.79123679 23.7094574 465.0022583 C23.76074892 470.81199953 23.80039072 476.6217639 23.83760071 482.43161011 C23.87765894 488.36398023 23.92874301 494.2962543 23.97889709 500.22854614 C24.07562117 511.86129114 24.16003732 523.49409041 24.23670959 535.12698364 C24.56670959 534.46698364 24.89670959 533.80698364 25.23670959 533.12698364 C25.83837952 532.8313855 26.44004944 532.53578735 27.05995178 532.23123169 C29.56879418 530.95852037 31.1040263 529.47138445 33.06483459 527.45901489 C33.78284241 526.73005005 34.50085022 526.00108521 35.24061584 525.25003052 C35.98182678 524.48755005 36.72303772 523.72506958 37.48670959 522.93948364 C42.28377279 518.02739318 47.11666671 513.28786316 52.32557678 508.81326294 C55.44244114 506.06311193 58.33209828 503.09791029 61.23670959 500.12698364 C65.40202989 495.86656471 69.66449752 491.82512715 74.17469788 487.93069458 C77.75909553 484.79530151 81.21250196 481.52152732 84.67420959 478.25198364 C85.41920715 477.55016968 86.16420471 476.84835571 86.93177795 476.12527466 C91.48356402 471.82412775 95.94750759 467.45215814 100.34217834 462.99026489 C102.20450394 461.15865807 104.12743483 459.44995023 106.11170959 457.75198364 C109.48230919 454.86481666 112.62147646 451.78426418 115.73670959 448.62698364 C119.43797528 444.88088092 123.20261773 441.27897309 127.22108459 437.87307739 C128.70215059 436.59006092 130.14514133 435.26275412 131.56483459 433.91213989 C146.30074448 419.98716845 160.78062881 417.94058861 180.35194397 418.01345825 C181.402117 418.01331223 182.45229004 418.0131662 183.5342865 418.01301575 C186.96636606 418.01370605 190.39838965 418.02145808 193.83045959 418.02932739 C196.22893748 418.03119511 198.62741576 418.03261734 201.02589417 418.03361511 C207.31122406 418.03741574 213.59653051 418.04722276 219.8818512 418.05831909 C226.29440495 418.06857382 232.70696249 418.07312469 239.11952209 418.07815552 C251.15022953 418.08837748 263.18092162 418.10414137 275.21161652 418.12419033 C276.88664621 418.12650078 278.56167831 418.12698364 280.23670959 418.12698364 C282.18130663 418.13320285 284.12590175 418.14002613 286.07049561 418.14717102 C303.09810093 418.20778677 320.1256796 418.2531685 337.15336895 418.28242016 C345.8987232 418.29784853 354.6439957 418.31887372 363.38929749 418.353302 C371.02801901 418.38335861 378.66668126 418.40259417 386.30546027 418.40924913 C390.34135634 418.41313235 394.37708261 418.42214567 398.41292381 418.44417381 C402.22229624 418.46479666 406.03143168 418.47076643 409.84085464 418.46630669 C411.87743433 418.46750322 413.91398924 418.48350627 415.95050049 418.50024414 C434.27225546 418.44001585 452.33435026 414.81383615 466.23670959 402.12698364 C467.05784241 401.40897583 467.87897522 400.69096802 468.72499084 399.95120239 C481.25665378 388.33231612 487.76297052 373.53635551 488.60293579 356.53706169 C488.80543294 349.85768691 488.77821695 343.1794994 488.75428772 336.49783325 C488.75971705 333.93855899 488.76684423 331.37928787 488.77552795 328.82002258 C488.79178924 322.62610263 488.78952684 316.43243751 488.77787739 310.23851459 C488.76879703 305.1994402 488.76763881 300.16042005 488.77197266 295.1213398 C488.77289205 294.04037085 488.77289205 294.04037085 488.77383003 292.93756415 C488.77510909 291.47302065 488.77640594 290.00847717 488.77772039 288.5439337 C488.78909126 274.85272238 488.77606719 261.16161868 488.75451893 247.47042502 C488.73664729 235.75294479 488.73975935 224.03562313 488.75819397 212.31814575 C488.77965613 198.670144 488.78799695 185.02223623 488.77574492 171.37421995 C488.77447088 169.91575056 488.77321339 168.45728115 488.77197266 166.99881172 C488.77135555 166.28144532 488.77073845 165.56407891 488.77010265 164.82497413 C488.76666602 159.79836694 488.77244135 154.77181996 488.78189087 149.74522209 C488.79435647 142.96605686 488.78533539 136.18723488 488.76231384 129.40808296 C488.75705274 126.92942421 488.75849559 124.45074014 488.7673645 121.97209167 C488.84407351 98.34438975 485.53648804 78.8303339 468.23670959 61.12698364 C461.31824273 55.05084722 453.95318154 50.17719222 445.23670959 47.12698364 C444.56373398 46.88034828 443.89075836 46.63371291 443.19738954 46.37960374 C433.98252273 43.40926992 424.87313057 43.70849486 415.30349731 43.74603271 C413.38039635 43.74257268 411.45729737 43.7378058 409.53420252 43.73185098 C404.26903498 43.71935879 399.00403114 43.72550333 393.73886311 43.73480964 C388.05300943 43.7416071 382.36718357 43.7311154 376.68133545 43.72286987 C365.55011141 43.70953757 354.4189481 43.71240814 343.2877217 43.7211078 C334.23964507 43.72788623 325.19158544 43.72880036 316.143507 43.72553635 C314.85514373 43.72507665 313.56678046 43.72461695 312.23937587 43.72414332 C309.62197951 43.72318413 307.00458316 43.72221149 304.38718682 43.72122554 C280.5489982 43.71291678 256.71084407 43.72152988 232.87266095 43.73725334 C211.12656114 43.75148784 189.38051403 43.75021706 167.63441467 43.73587036 C143.18551856 43.71979433 118.73665629 43.71349867 94.28775495 43.72270715 C91.67974596 43.72366278 89.07173696 43.7246059 86.46372795 43.72553635 C84.53901499 43.72623059 84.53901499 43.72623059 82.57541894 43.72693885 C73.54045623 43.72952729 64.50551225 43.72516084 55.47055244 43.71809769 C44.45666389 43.70967667 33.44283947 43.71197548 22.42895824 43.72793992 C16.8112951 43.7358147 11.19373882 43.73892767 5.57607651 43.72899246 C0.42978667 43.7200287 -4.71629763 43.72500624 -9.86256892 43.74092512 C-11.72044735 43.7442658 -13.57834328 43.74259497 -15.43621039 43.73529775 C-36.04809428 43.66057394 -52.89142032 47.82714608 -67.76329041 63.12698364 Z " fill="#0C0C0C" transform="translate(198.76329040527344,115.87301635742188)"/>
<path d="M0 0 C1.2065625 -0.020625 2.413125 -0.04125 3.65625 -0.0625 C10.06515055 -0.09067099 15.02321957 -0.00573563 20.625 3.25 C22.69893538 5.66959127 22.64206946 6.93005705 22.47265625 10.10546875 C21.54649352 15.98834526 18.88199485 21.37269689 16.5625 26.8125 C16.02693372 28.08505853 15.49212441 29.35793585 14.95800781 30.63110352 C13.80136921 33.38398944 12.63966968 36.13466389 11.47412109 38.88378906 C9.58394412 43.34303503 7.70712862 47.80783378 5.83203125 52.2734375 C2.11215441 61.12815585 -1.61970231 69.97779795 -5.35290527 78.8269043 C-7.99206487 85.08360057 -10.62899592 91.34123589 -13.26504517 97.59924316 C-13.92265635 99.1603948 -14.5803511 100.72151123 -15.23812866 102.28259277 C-19.12400806 111.50571994 -22.99844366 120.73351612 -26.85546875 129.96875 C-34.41466719 148.06659642 -42.0066967 166.147407 -49.75537109 184.16503906 C-50.3655865 185.58397294 -50.97577516 187.00291831 -51.5859375 188.421875 C-51.88978363 189.12846252 -52.19362976 189.83505005 -52.50668335 190.56304932 C-56.01711683 198.73352386 -59.49116739 206.91942156 -62.96566772 215.10522461 C-64.05025587 217.6586736 -65.13675094 220.21130247 -66.22387695 222.76367188 C-69.20156553 229.75748071 -72.17676604 236.75157817 -75.0884552 243.7731781 C-75.91690564 245.76909765 -76.75017382 247.76292944 -77.58520508 249.75610352 C-78.57813292 252.13003072 -79.56176399 254.50787828 -80.53393555 256.89038086 C-85.29250817 268.20875408 -85.29250817 268.20875408 -91.375 271.25 C-95.36411312 271.62336121 -99.37211171 271.71981391 -103.375 271.875 C-105.02435547 271.95234375 -105.02435547 271.95234375 -106.70703125 272.03125 C-123.91548902 272.72530405 -123.91548902 272.72530405 -128.16503906 270.17626953 C-129.625 268.75 -129.625 268.75 -131.375 265.25 C-130.35012623 257.69829851 -127.35405679 250.98268509 -124.32949829 244.04602051 C-123.40549588 241.92659058 -122.49106257 239.80324349 -121.57885742 237.67871094 C-120.58157279 235.35630462 -119.58369058 233.03417317 -118.58308411 230.7131958 C-114.80158125 221.93964752 -111.09112053 213.13636403 -107.38119507 204.33236694 C-105.36139133 199.53983199 -103.33872589 194.74850496 -101.31640625 189.95703125 C-100.90961136 188.99299881 -100.50281647 188.02896637 -100.08369446 187.03572083 C-97.2136785 180.23481124 -94.3399919 173.43546 -91.46484375 166.63671875 C-83.61123426 148.06243405 -75.7750399 129.48160613 -68.03979492 110.85766602 C-64.52895932 102.40674624 -60.99661699 93.96525312 -57.4453125 85.53125 C-56.18832695 82.54240522 -54.93156556 79.55346625 -53.67483521 76.56451416 C-52.85389926 74.61423194 -52.03170659 72.66447821 -51.20822144 70.715271 C-50.06405932 68.00680309 -48.92418522 65.29656726 -47.78515625 62.5859375 C-47.26606186 61.36215393 -47.26606186 61.36215393 -46.73648071 60.11364746 C-45.00226387 56.31360536 -45.00226387 56.31360536 -44.375 52.25 C-43.715 52.25 -43.055 52.25 -42.375 52.25 C-42.15783325 51.41843384 -42.15783325 51.41843384 -41.9362793 50.57006836 C-39.73397855 42.67669727 -36.49582466 35.2879389 -33.1875 27.8125 C-32.08353019 25.31644424 -30.98703119 22.8175508 -29.89453125 20.31640625 C-29.41089111 19.22271729 -28.92725098 18.12902832 -28.42895508 17.00219727 C-27.1961879 14.2742509 -27.1961879 14.2742509 -27.375 11.25 C-26.715 11.25 -26.055 11.25 -25.375 11.25 C-25.148125 10.3425 -24.92125 9.435 -24.6875 8.5 C-23.15797877 4.7126141 -21.80562789 3.40411519 -18.375 1.25 C-12.3631067 -0.31049572 -6.16729663 0.0261881 0 0 Z " fill="#0C0C0C" transform="translate(460.375,217.75)"/>
<path d="M0 0 C4.69020817 3.38072723 7.83178871 7.12425709 11.0625 11.875 C11.67448242 12.75478516 11.67448242 12.75478516 12.29882812 13.65234375 C13.11987431 14.8326787 13.93673084 16.01593957 14.74926758 17.20214844 C16.05530457 19.07949695 17.40965817 20.91631035 18.765625 22.7578125 C21 26 21 26 21.6875 29 C19.93295519 36.65619555 12.25287198 41.33552244 6.1875 45.625 C4.48079205 46.85671782 2.77508198 48.08981938 1.0703125 49.32421875 C0.21727539 49.93958496 -0.63576172 50.55495117 -1.51464844 51.18896484 C-5.20341347 53.87690777 -8.82313551 56.65072766 -12.4375 59.4375 C-18.65016494 64.21760094 -24.90675186 68.9347424 -31.1875 73.625 C-39.22268737 79.62955368 -47.15343101 85.75132502 -55 92 C-51.75128842 95.36578227 -48.45660929 98.29564325 -44.6875 101.0625 C-43.64851563 101.82949219 -42.60953125 102.59648437 -41.5390625 103.38671875 C-40.97606445 103.80099121 -40.41306641 104.21526367 -39.83300781 104.64208984 C-37.82420662 106.13022946 -35.82919397 107.63563885 -33.8359375 109.14453125 C-33.12735596 109.68005615 -32.41877441 110.21558105 -31.6887207 110.76733398 C-30.29813401 111.81877656 -28.9086033 112.87161754 -27.52026367 113.92602539 C-24.88483142 115.91206712 -22.31918221 117.81409727 -19.46484375 119.4765625 C-16.66145043 121.20924617 -14.3344481 123.24021645 -11.86083984 125.40771484 C-8.79470518 128.03134779 -5.55357598 130.41109954 -2.3125 132.8125 C-1.6205957 133.33094482 -0.92869141 133.84938965 -0.21582031 134.38354492 C3.01898511 136.80442916 6.26579813 139.2007499 9.56640625 141.53125 C15.15845036 145.53830983 19.27325236 148.59214303 22 155 C21.34 155 20.68 155 20 155 C19.93039062 155.53238281 19.86078125 156.06476563 19.7890625 156.61328125 C18.67531288 159.98209816 16.56326997 162.45396144 14.375 165.1875 C13.46352422 166.34503834 12.55206597 167.5025905 11.640625 168.66015625 C11.19138672 169.22621582 10.74214844 169.79227539 10.27929688 170.37548828 C7.99392972 173.27755566 5.7883729 176.24161398 3.5703125 179.1953125 C0.8917706 182.27363677 -0.82486966 183.85136691 -4.96484375 184.375 C-8.45659201 183.94358709 -9.81359363 183.15819383 -12.5625 181 C-13.50867188 180.27296875 -14.45484375 179.5459375 -15.4296875 178.796875 C-15.97850586 178.36568359 -16.52732422 177.93449219 -17.09277344 177.49023438 C-20.19115349 175.06927792 -23.32944069 172.70094248 -26.46069336 170.32275391 C-29.21030813 168.23266264 -31.95506445 166.13631609 -34.69921875 164.0390625 C-39.9203866 160.05396836 -45.17049083 156.10889954 -50.43505859 152.18139648 C-53.56853548 149.83959023 -56.68396993 147.4789172 -59.76953125 145.07421875 C-60.36765625 144.60870605 -60.96578125 144.14319336 -61.58203125 143.66357422 C-63.1996112 142.40063863 -64.81286264 141.13216452 -66.42578125 139.86328125 C-68.92448619 137.85845494 -68.92448619 137.85845494 -72 137 C-73.67107387 135.33775222 -75.33684086 133.67016683 -77 132 C-79.43893841 130.02082682 -81.96703535 128.16909463 -84.5 126.3125 C-85.93408141 125.24935541 -87.36766864 124.18554392 -88.80078125 123.12109375 C-89.51057129 122.59499512 -90.22036133 122.06889648 -90.95166016 121.52685547 C-94.94622047 118.54926546 -98.88346558 115.49857782 -102.8203125 112.4453125 C-105.04472615 110.72385809 -107.29175302 109.03765353 -109.5546875 107.3671875 C-110.14161377 106.92906738 -110.72854004 106.49094727 -111.33325195 106.03955078 C-112.95851287 104.82754624 -114.59036928 103.62440038 -116.22265625 102.421875 C-119.17851503 99.84433289 -121.07489482 97.40808093 -123 94 C-123.09498994 89.44048282 -121.53317312 87.0286198 -118.61254883 83.6328125 C-115.51327633 80.49459381 -111.90120555 78.04381885 -108.3125 75.5 C-106.59874722 74.26250954 -104.88654414 73.02287055 -103.17578125 71.78125 C-101.87761475 70.83958984 -101.87761475 70.83958984 -100.55322266 69.87890625 C-96.63936505 66.99871423 -92.81874151 64.00452265 -89 61 C-82.13874131 55.61508142 -75.16507973 50.40872815 -68.12304688 45.26318359 C-61.72008625 40.56899662 -55.45018602 35.71922151 -49.20043945 30.82373047 C-44.6010487 27.22685564 -39.94601637 23.7392374 -35.1953125 20.34375 C-29.47515757 16.14803734 -23.87095673 11.79596028 -18.25854492 7.45751953 C-17.38045166 6.78317871 -16.5023584 6.10883789 -15.59765625 5.4140625 C-14.80883057 4.8051416 -14.02000488 4.1962207 -13.20727539 3.56884766 C-8.71056963 0.3727597 -5.61357768 -0.67750075 0 0 Z " fill="#0C0C0C" transform="translate(304,268)"/>
<path d="M0 0 C4.10560097 2.57781603 7.89414178 5.5432845 11.70117188 8.53759766 C13.57514256 9.98944805 15.4501643 11.43994269 17.32617188 12.88916016 C18.2671875 13.61780273 19.20820312 14.34644531 20.17773438 15.09716797 C24.30661091 18.26506303 28.49943126 21.34237956 32.70117188 24.41259766 C38.6946531 28.80100293 44.6304984 33.25242404 50.51367188 37.78759766 C57.0775664 42.84572986 63.75415568 47.72503947 70.48901367 52.55249023 C76.0622207 56.55665416 81.51999807 60.68397898 86.93945312 64.89306641 C89.9438972 67.21946473 92.97240461 69.50959799 96.01367188 71.78759766 C96.98175781 72.51462891 97.94984375 73.24166016 98.94726562 73.99072266 C101.05491317 75.55843969 103.16935939 77.1096721 105.29882812 78.64697266 C105.84724365 79.047146 106.39565918 79.44731934 106.96069336 79.85961914 C108.48727006 80.97277202 110.01982642 82.07771097 111.55273438 83.18212891 C113.88417494 85.16803023 114.96339579 86.36514133 115.95117188 89.22509766 C116.07617188 92.53759766 116.07617188 92.53759766 114.95117188 96.22509766 C110.13755214 101.39430317 104.0788774 105.42682761 98.32617188 109.47509766 C92.72885544 113.46423418 87.20460414 117.50731397 81.82617188 121.78759766 C75.03426743 127.18989407 68.10807494 132.39746975 61.15087891 137.58447266 C51.02663686 145.13551666 40.91949034 152.70897032 30.87841797 160.37036133 C29.10550817 161.72275878 27.33111223 163.07321039 25.55517578 164.42163086 C21.45835541 167.53406031 17.38205555 170.66527635 13.35351562 173.86572266 C12.6384082 174.42493408 11.92330078 174.98414551 11.18652344 175.56030273 C9.87213725 176.58871434 8.5671225 177.62928314 7.27441406 178.68481445 C2.85895605 182.1078238 -0.40133414 183.32217288 -6.04882812 183.22509766 C-10.86906786 180.56392363 -13.8578325 175.79819189 -17.04882812 171.41259766 C-17.55671875 170.72617187 -18.06460937 170.03974609 -18.58789062 169.33251953 C-19.59515445 167.96754791 -20.59729145 166.59877655 -21.59399414 165.22607422 C-22.55928935 163.89840858 -23.53369608 162.57731729 -24.51733398 161.26318359 C-26.58585535 158.46587394 -27.98642334 156.57179092 -28.61132812 153.10009766 C-27.36461348 146.72800058 -21.88601171 143.36870476 -16.92382812 139.78759766 C-15.48258922 138.72794137 -14.04252945 137.66667989 -12.60351562 136.60400391 C-11.85553711 136.05244629 -11.10755859 135.50088867 -10.33691406 134.93261719 C-6.52761919 132.08987195 -2.79009598 129.15644625 0.95117188 126.22509766 C7.57047816 121.04698769 14.24944778 115.95885132 21.00195312 110.95556641 C23.44652965 109.13858303 25.79401085 107.38225868 27.95117188 105.22509766 C29.9404631 103.87583926 31.94244817 102.54525177 33.95117188 101.22509766 C36.25087954 99.65334554 38.53837966 98.0641298 40.82617188 96.47509766 C41.41914062 96.06388672 42.01210938 95.65267578 42.62304688 95.22900391 C44.06608967 94.2281839 45.50867891 93.22670998 46.95117188 92.22509766 C43.15109621 88.27330794 39.12235348 84.81335302 34.82617188 81.41259766 C33.82614136 80.61668213 33.82614136 80.61668213 32.8059082 79.8046875 C28.29049205 76.23122722 23.68501409 72.8143692 19.00195312 69.46337891 C15.04984371 66.56381592 11.18896276 63.55466216 7.32617188 60.53759766 C1.15790918 55.72047202 -5.02218275 50.92045305 -11.23632812 46.16259766 C-11.91840332 45.63899658 -12.60047852 45.11539551 -13.30322266 44.57592773 C-16.45800682 42.16365208 -19.63024177 39.81489502 -22.90039062 37.56103516 C-26.75171661 34.70359975 -28.01619897 32.91164538 -29.04882812 28.22509766 C-26.2965545 21.67341288 -22.36910078 16.11763404 -18.17382812 10.41259766 C-17.57441406 9.56761719 -16.975 8.72263672 -16.35742188 7.85205078 C-7.69976747 -3.97006083 -7.69976747 -3.97006083 0 0 Z " fill="#0C0C0C" transform="translate(509.048828125,268.77490234375)"/>
<path d="M0 0 C0.92758063 -0.00199105 1.85516125 -0.0039821 2.81085038 -0.00603348 C3.82640937 -0.00312064 4.84196835 -0.0002078 5.88830185 0.00279331 C6.96977737 0.00193889 8.05125289 0.00108446 9.1655004 0.00020415 C12.80145008 -0.00144736 16.43735396 0.00406538 20.07329941 0.00952244 C22.67484155 0.00980441 25.27638378 0.00964639 27.87792587 0.00907993 C33.485111 0.00855543 39.0922845 0.01169455 44.69946671 0.01731777 C52.8065231 0.02544273 60.91357388 0.02804902 69.02063391 0.02930576 C82.17360893 0.03149471 95.32657775 0.03815056 108.47954941 0.04760838 C121.25689284 0.05678654 134.03423459 0.0638654 146.81158066 0.06811619 C147.99285457 0.06851027 147.99285457 0.06851027 149.19799259 0.06891232 C153.14870486 0.07021735 157.09941713 0.07148106 161.05012941 0.07272422 C193.82836507 0.08309195 226.60659313 0.10070601 259.38482285 0.12304783 C258.38482285 2.12304783 258.38482285 2.12304783 256.61077142 2.74035734 C254.28286624 3.14057646 252.13152882 3.2472161 249.76964569 3.24609566 C248.84206506 3.24808671 247.91448444 3.25007775 246.95879531 3.25212914 C245.94323632 3.2492163 244.92767734 3.24630345 243.88134384 3.24330235 C242.79986832 3.24415677 241.7183928 3.24501119 240.60414529 3.24589151 C236.96819561 3.24754301 233.33229173 3.24203027 229.69634628 3.23657322 C227.09480414 3.23629125 224.49326192 3.23644927 221.89171982 3.23701572 C216.28453469 3.23754023 210.67736119 3.23440111 205.07017899 3.22877789 C196.96312259 3.22065293 188.85607181 3.21804664 180.74901178 3.21678989 C167.59603676 3.21460094 154.44306794 3.2079451 141.29009628 3.19848728 C128.51275285 3.18930911 115.7354111 3.18223026 102.95806503 3.17797947 C101.77679113 3.17758538 101.77679113 3.17758538 100.5716531 3.17718334 C96.62094083 3.17587831 92.67022856 3.1746146 88.71951628 3.17337143 C55.94128062 3.16300371 23.16305256 3.14538964 -9.61517715 3.12304783 C-8.61517715 1.12304783 -8.61517715 1.12304783 -6.84112573 0.50573832 C-4.51322055 0.1055192 -2.36188313 -0.00112044 0 0 Z " fill="#1D1C1C" transform="translate(378.615177154541,573.8769521713257)"/>
<path d="M0 0 C0.33 0 0.66 0 1 0 C1 88.44 1 176.88 1 268 C0.67 268 0.34 268 0 268 C-1.73516879 252.85458289 -2.28875038 237.93214365 -2.25878906 222.69580078 C-2.26150674 220.33955783 -2.26507198 217.98331572 -2.26940918 215.6270752 C-2.27843617 209.29745048 -2.27503131 202.96789179 -2.26865101 196.63826609 C-2.26406755 190.66591706 -2.26758461 184.69357378 -2.2705054 178.72122489 C-2.27617703 166.19006799 -2.26969768 153.65894059 -2.25890467 141.12778853 C-2.24994278 130.38970245 -2.25154896 119.65165955 -2.26074219 108.91357422 C-2.27145077 96.39985949 -2.27565854 83.88617033 -2.26951766 71.37245166 C-2.26636186 64.76337978 -2.26597533 58.15433194 -2.27259064 51.54526138 C-2.27836557 45.34479045 -2.27436447 39.1444013 -2.26280212 32.94393921 C-2.26015795 30.66993216 -2.26091648 28.39591822 -2.26532745 26.12191391 C-2.27079284 23.01844902 -2.26393695 19.91524629 -2.25396729 16.8117981 C-2.25842873 15.91268491 -2.26289017 15.01357172 -2.26748681 14.08721268 C-2.23583253 9.00721786 -1.64155099 4.81519947 0 0 Z " fill="#010101" transform="translate(73,216)"/>
<path d="M0 0 C0.33 0 0.66 0 1 0 C0.99777939 0.65377625 0.99555878 1.30755249 0.99327087 1.98114014 C0.96632975 10.42760943 0.9507701 18.87407221 0.94049835 27.32057571 C0.93850598 28.93490241 0.93634543 30.54922891 0.93401337 32.16355515 C0.89861511 57.48419812 1.02738556 82.80199273 1.25123024 108.12148666 C1.29315133 112.86484629 1.33350701 117.60821851 1.373703 122.35159302 C1.40082261 125.53485182 1.42804668 128.71810972 1.45532227 131.90136719 C1.46208225 132.69144692 1.46884224 133.48152666 1.47580707 134.2955482 C1.55805749 143.86895408 1.64789519 153.44223595 1.74825269 163.01546937 C1.81195999 169.13882227 1.86818148 175.26221703 1.91904372 181.38568991 C1.94917919 184.97360102 1.98299813 188.56138567 2.02628136 192.1491642 C2.07395815 196.10205648 2.10521909 200.05498909 2.13525391 204.00805664 C2.15179488 205.15319607 2.16833586 206.29833549 2.18537807 207.47817612 C2.22391271 214.84515205 1.44171689 221.77633324 0 229 C-0.33 229 -0.66 229 -1 229 C-1.02279014 199.97117133 -1.04049806 170.94234353 -1.05106533 141.9135077 C-1.0523161 138.48994588 -1.05361042 135.06638407 -1.05493164 131.64282227 C-1.05519395 130.96122441 -1.05545626 130.27962655 -1.05572652 129.57737421 C-1.06008326 118.52675331 -1.06797082 107.47613759 -1.0771528 96.42551977 C-1.08648924 85.09488069 -1.09198069 73.76424545 -1.09408849 62.43360227 C-1.09539603 56.06586316 -1.09848458 49.69813582 -1.10573006 43.33040047 C-1.11248631 37.34447483 -1.11461777 31.35856588 -1.11310768 25.3726368 C-1.11338419 23.16869008 -1.11539164 20.96474284 -1.11920547 18.76079941 C-1.12413656 15.76585076 -1.12300046 12.77096617 -1.12025452 9.77601624 C-1.12316736 8.89179287 -1.1260802 8.0075695 -1.12908131 7.09655148 C-1.11412121 1.11412121 -1.11412121 1.11412121 0 0 Z " fill="#020203" transform="translate(112,213)"/>
<path d="M0 0 C0.33 0 0.66 0 1 0 C1 40.92 1 81.84 1 124 C-1.54127137 120.18809294 -1.45044112 116.91028914 -1.61669922 112.47607422 C-1.65429792 111.62975874 -1.69189663 110.78344326 -1.73063469 109.91148186 C-2.09386857 101.06926387 -2.14547094 92.23114426 -2.1328125 83.3828125 C-2.13348974 81.66665636 -2.13446321 79.95050031 -2.13571167 78.23434448 C-2.13716976 74.66972931 -2.13509645 71.10513952 -2.13037109 67.54052734 C-2.12468297 63.03715636 -2.12805357 58.53384456 -2.13380814 54.03047562 C-2.16833659 22.29701443 -2.16833659 22.29701443 -1.5546875 9.0546875 C-1.49657394 7.79532883 -1.49657394 7.79532883 -1.43728638 6.51052856 C-1.13529016 1.13529016 -1.13529016 1.13529016 0 0 Z " fill="#040404" transform="translate(183,577)"/>
<path d="M0 0 C-3.23059514 7.53238763 -10.90976528 13.08900806 -17.03515625 18.3046875 C-18.38228556 19.46702174 -19.70177343 20.66194675 -20.99609375 21.8828125 C-26.87445868 27.3601194 -31.86343043 30.13656686 -40 30.1875 C-41.33395836 30.14018053 -42.66780204 30.08326237 -44 30 C-41.11150006 28.07433337 -40.17503754 27.76493265 -36.9375 27.3125 C-27.86380576 25.40070056 -21.40147449 18.68353555 -15.171875 12.2109375 C-12.48797796 9.47876893 -9.64035631 6.98993316 -6.7265625 4.5078125 C-4.9695883 3.02203902 -4.9695883 3.02203902 -3.3984375 1.3046875 C-2 0 -2 0 0 0 Z " fill="#121212" transform="translate(244,689)"/>
<path d="M0 0 C0.495 1.485 0.495 1.485 1 3 C-6.84712048 9.08581424 -14.74998693 15.09510449 -22.6875 21.0625 C-23.57276367 21.72967041 -24.45802734 22.39684082 -25.37011719 23.08422852 C-26.2005957 23.70740967 -27.03107422 24.33059082 -27.88671875 24.97265625 C-28.63139404 25.53218994 -29.37606934 26.09172363 -30.14331055 26.66821289 C-32 28 -32 28 -34 29 C-33.44198406 25.61078739 -32.59565204 24.29923232 -29.82421875 22.30078125 C-28.83772339 21.57665039 -28.83772339 21.57665039 -27.83129883 20.83789062 C-26.77011841 20.08282227 -26.77011841 20.08282227 -25.6875 19.3125 C-24.22651481 18.24615908 -22.76557777 17.1797522 -21.3046875 16.11328125 C-20.57733398 15.58814941 -19.84998047 15.06301758 -19.10058594 14.52197266 C-16.14574838 12.38105479 -13.22902074 10.19284539 -10.3125 8 C-9.40113281 7.319375 -8.48976563 6.63875 -7.55078125 5.9375 C-4.99913635 3.99934399 -2.49323299 2.01255564 0 0 Z " fill="#121212" transform="translate(580,395)"/>
<path d="M0 0 C0.67482422 0.51046875 0.67482422 0.51046875 1.36328125 1.03125 C6.15086691 4.63872938 10.98354609 8.17952639 15.8359375 11.69921875 C21.90535293 16.11265787 27.95074847 20.55898404 34 25 C33.67 25.66 33.34 26.32 33 27 C29.39980743 25.38376153 26.4490267 23.19462028 23.3125 20.8125 C22.78865723 20.41683838 22.26481445 20.02117676 21.72509766 19.61352539 C17.67743844 16.54728492 13.6923809 13.40538457 9.7421875 10.21484375 C8.08056523 8.80933993 8.08056523 8.80933993 6 9 C2.75228591 6.1483486 0.80890553 4.25357064 0 0 Z " fill="#101010" transform="translate(251,363)"/>
<path d="M0 0 C5.97243366 0.61480935 9.53639326 4.32015375 14.0625 7.96875 C16.91599904 9.94191423 18.57624196 10.77135862 22 11 C26.56994522 9.05777328 29.02388666 5.82643144 32 2 C32.495 3.485 32.495 3.485 33 5 C31.63671875 7.0078125 31.63671875 7.0078125 29.6875 9.125 C29.05199219 9.82882812 28.41648437 10.53265625 27.76171875 11.2578125 C25.48148387 13.51276762 24.42644124 13.95514293 21.21484375 14.29296875 C17.26830075 13.93332024 15.6574347 12.74263015 12.5625 10.3125 C11.61890625 9.58546875 10.6753125 8.8584375 9.703125 8.109375 C8.81109375 7.41328125 7.9190625 6.7171875 7 6 C5.60997606 5.01260368 4.2151807 4.03183219 2.8125 3.0625 C1.884375 2.381875 0.95625 1.70125 0 1 C0 0.67 0 0.34 0 0 Z " fill="#141414" transform="translate(278,438)"/>
<path d="M0 0 C3.02884276 1.08172956 4.0076128 2.01150924 5.81640625 4.74609375 C8.02695525 8.04016767 10.37792921 10.64414607 13.1875 13.4375 C13.66364746 13.91123047 14.13979492 14.38496094 14.63037109 14.87304688 C18.29058471 18.45408782 22.1528101 21.59630612 26.3203125 24.5625 C28 26 28 26 29 29 C21.48690508 25.47823676 15.52759045 19.71847297 9.6875 13.9375 C9.18412109 13.44330566 8.68074219 12.94911133 8.16210938 12.43994141 C0 4.20972364 0 4.20972364 0 0 Z " fill="#121212" transform="translate(91,532)"/>
<path d="M0 0 C0.66 0.33 1.32 0.66 2 1 C-1.26239524 5.1799439 -4.72163005 8.63331942 -8.75 12.07421875 C-14.69885379 17.16585924 -20.53429481 22.39046046 -26 28 C-27.43614706 29.43885167 -28.87374509 30.87625601 -30.3125 32.3125 C-31.00988281 33.00988281 -31.70726562 33.70726562 -32.42578125 34.42578125 C-33.20501953 35.20501953 -33.20501953 35.20501953 -34 36 C-34.66 35.67 -35.32 35.34 -36 35 C-33.337658 32.30818725 -30.66933333 29.62237853 -28 26.9375 C-27.25621094 26.18533203 -26.51242187 25.43316406 -25.74609375 24.65820312 C-21.57696231 20.47094502 -17.32275822 16.4719322 -12.84375 12.61889648 C-10.10843935 10.21716913 -7.54942214 7.6586017 -5 5.0625 C-4.51144531 4.56943359 -4.02289063 4.07636719 -3.51953125 3.56835938 C-2.34396475 2.38126771 -1.17161174 1.19099502 0 0 Z " fill="#1B1B1B" transform="translate(320,558)"/>
<path d="M0 0 C0.66 0 1.32 0 2 0 C-1.34078327 9.48513844 -9.88983877 18.06685523 -17 25 C-17.66 25 -18.32 25 -19 25 C-17.49671154 21.52661246 -15.46591279 19.1773677 -12.875 16.4375 C-8.69220626 11.90332456 -5.11450302 7.13872966 -1.62890625 2.0546875 C-1.09136719 1.37664063 -0.55382812 0.69859375 0 0 Z " fill="#111111" transform="translate(712,525)"/>
<path d="M0 0 C4.35403865 -0.08755672 8.70784877 -0.14057969 13.0625 -0.1875 C14.29162109 -0.21263672 15.52074219 -0.23777344 16.78710938 -0.26367188 C23.27561665 -0.31613959 28.33476585 -0.32436265 34 3 C35.5 4.75 35.5 4.75 36 7 C35.625 10.75 35.625 10.75 35 14 C33 11 33 11 32 7.9375 C31.21378109 4.91944266 31.21378109 4.91944266 29 3 C25.75532352 1.88346016 22.55106859 1.80539531 19.140625 1.68359375 C18.02558594 1.64169922 16.91054688 1.59980469 15.76171875 1.55664062 C14.60285156 1.51732422 13.44398438 1.47800781 12.25 1.4375 C10.48849609 1.37272461 10.48849609 1.37272461 8.69140625 1.30664062 C5.79438549 1.20065206 2.89728065 1.09858362 0 1 C0 0.67 0 0.34 0 0 Z " fill="#2D2D2D" transform="translate(447,218)"/>
<path d="M0 0 C-1.36082171 3.07884863 -2.86748805 5.07086911 -5.3359375 7.34765625 C-5.98820312 7.95287109 -6.64046875 8.55808594 -7.3125 9.18164062 C-7.993125 9.80232422 -8.67375 10.42300781 -9.375 11.0625 C-10.04789062 11.68705078 -10.72078125 12.31160156 -11.4140625 12.95507812 C-14.5095578 15.80988039 -17.59880772 18.51062667 -21 21 C-21 18 -21 18 -19.79418945 16.43774414 C-19.23948975 15.89239014 -18.68479004 15.34703613 -18.11328125 14.78515625 C-17.50419922 14.18123047 -16.89511719 13.57730469 -16.26757812 12.95507812 C-15.62240234 12.33052734 -14.97722656 11.70597656 -14.3125 11.0625 C-13.37374023 10.13147461 -13.37374023 10.13147461 -12.41601562 9.18164062 C-3.07792532 0 -3.07792532 0 0 0 Z " fill="#131313" transform="translate(283,653)"/>
<path d="M0 0 C1.95332262 1.45291312 3.87499985 2.93335013 5.7734375 4.45703125 C4.7834375 4.95203125 4.7834375 4.95203125 3.7734375 5.45703125 C0.28161823 3.61589018 -2.94395591 1.64543564 -6.2265625 -0.54296875 C-11.11126481 -0.33059039 -13.6538964 1.1996004 -17.2265625 4.45703125 C-17.8865625 4.12703125 -18.5465625 3.79703125 -19.2265625 3.45703125 C-13.07614702 -4.62637195 -8.62581569 -5.97753895 0 0 Z " fill="#171716" transform="translate(513.2265625,271.54296875)"/>
<path d="M0 0 C0 0.66 0 1.32 0 2 C-1.57365547 3.27448143 -3.21237132 4.46898948 -4.875 5.625 C-9.75810256 9.07412548 -14.40913935 12.70840394 -19.00390625 16.53125 C-21 18 -21 18 -23 18 C-21.59528666 14.67193076 -20.03192763 12.95989328 -17.15625 10.80078125 C-16.40472656 10.23166016 -15.65320313 9.66253906 -14.87890625 9.07617188 C-14.09386719 8.49416016 -13.30882812 7.91214844 -12.5 7.3125 C-11.71496094 6.71888672 -10.92992187 6.12527344 -10.12109375 5.51367188 C-2.79048781 0 -2.79048781 0 0 0 Z " fill="#121112" transform="translate(608,376)"/>
<path d="M0 0 C0.33 0 0.66 0 1 0 C1 1.98 1 3.96 1 6 C1.52078125 6.22429687 2.0415625 6.44859375 2.578125 6.6796875 C5.90659609 8.49424109 8.77292576 10.78914175 11.75 13.125 C12.35199219 13.59292969 12.95398438 14.06085938 13.57421875 14.54296875 C15.05186616 15.69225007 16.52626005 16.84571235 18 18 C17.67 18.66 17.34 19.32 17 20 C10.66708002 17.05062592 2.73388012 12.77164863 -0.25 6.1875 C-1 3 -1 3 0 0 Z " fill="#141414" transform="translate(481,294)"/>
<path d="M0 0 C0 3 0 3 -2.0625 5.25 C-3.03816814 6.17038949 -4.01772916 7.08666045 -5 8 C-6.17220698 9.14016487 -7.33863167 10.28629682 -8.5 11.4375 C-9.09683594 12.02789063 -9.69367188 12.61828125 -10.30859375 13.2265625 C-11.86020626 14.85342643 -13.20560508 16.52366748 -14.5625 18.3125 C-17.26525834 21.29246432 -19.13048787 22.10011346 -23 23 C-20.74718869 19.90238445 -18.33862614 17.34721222 -15.4375 14.875 C-9.98609537 10.22739416 -5.01981294 5.10286131 0 0 Z " fill="#19191A" transform="translate(264,611)"/>
<path d="M0 0 C4.36993993 0.87138331 7.21851404 3.26264521 10.625 6 C14.61545796 9.29809838 14.61545796 9.29809838 19 12 C19.625 14.0625 19.625 14.0625 20 16 C15.49530107 13.87660662 11.7216387 10.97522051 7.75 8 C7.00492188 7.4534375 6.25984375 6.906875 5.4921875 6.34375 C4.43644531 5.55484375 4.43644531 5.55484375 3.359375 4.75 C2.71452148 4.27046875 2.06966797 3.7909375 1.40527344 3.296875 C0.9415332 2.86890625 0.47779297 2.4409375 0 2 C0 1.34 0 0.68 0 0 Z " fill="#131212" transform="translate(509,322)"/>
<path d="M0 0 C0.66 0 1.32 0 2 0 C2.57363281 0.72960937 3.14726562 1.45921875 3.73828125 2.2109375 C7.036518 6.27819318 11.16952463 8.90367767 15.41796875 11.9140625 C18 14 18 14 19 17 C15.02429055 15.27653975 11.76440486 12.64797254 8.375 10 C7.78976563 9.54882812 7.20453125 9.09765625 6.6015625 8.6328125 C4.28970673 6.84059403 2.07048207 5.07048207 0 3 C0 2.01 0 1.02 0 0 Z " fill="#121213" transform="translate(183,363)"/>
<path d="M0 0 C3.26801006 2.17867337 3.7283159 3.5221146 5.1015625 7.05859375 C6.09118871 9.19704692 7.31603064 10.88425534 8.75 12.75 C9.4925 13.8225 10.235 14.895 11 16 C10.67 16.99 10.34 17.98 10 19 C8.31463604 16.97154409 6.65274604 14.92976535 5 12.875 C4.52304687 12.30523437 4.04609375 11.73546875 3.5546875 11.1484375 C1.122361 8.09065562 0.05184968 6.56905027 -0.3125 2.5703125 C-0.209375 1.72210938 -0.10625 0.87390625 0 0 Z " fill="#0F0F0F" transform="translate(481,419)"/>
<path d="M0 0 C2.86888993 2.31362091 3.94248597 3.81730837 5.0625 7.375 C4.97737536 12.31222895 3.42319759 13.57680241 0 17 C-0.66 16.34 -1.32 15.68 -2 15 C-1.505 14.649375 -1.01 14.29875 -0.5 13.9375 C1.76782157 11.00823047 1.24914047 8.61253681 1 5 C0.71479595 3.32442621 0.40044304 1.65182755 0 0 Z " fill="#171717" transform="translate(620,352)"/>
<path d="M0 0 C0.8971875 0.5259375 0.8971875 0.5259375 1.8125 1.0625 C0.93207031 1.38863281 0.05164063 1.71476563 -0.85546875 2.05078125 C-2.59763672 2.70626953 -2.59763672 2.70626953 -4.375 3.375 C-5.52355469 3.80425781 -6.67210937 4.23351562 -7.85546875 4.67578125 C-10.84681571 5.92071463 -13.42594135 7.38986856 -16.1875 9.0625 C-16.8475 9.0625 -17.5075 9.0625 -18.1875 9.0625 C-17.1875 6.0625 -17.1875 6.0625 -14.5703125 4.4921875 C-13.49523437 3.97914063 -12.42015625 3.46609375 -11.3125 2.9375 C-10.24257812 2.41929687 -9.17265625 1.90109375 -8.0703125 1.3671875 C-2.5934754 -1.11148946 -2.5934754 -1.11148946 0 0 Z " fill="#141414" transform="translate(159.1875,160.9375)"/>
<path d="M0 0 C0.99 1.32 1.98 2.64 3 4 C2.34 4 1.68 4 1 4 C0.90847656 4.56203125 0.81695312 5.1240625 0.72265625 5.703125 C-0.18700014 8.59435721 -1.6611097 10.39919018 -3.5625 12.75 C-4.52349609 13.94882812 -4.52349609 13.94882812 -5.50390625 15.171875 C-5.99761719 15.77515625 -6.49132812 16.3784375 -7 17 C-7.66 16.34 -8.32 15.68 -9 15 C-8.51789063 14.41992188 -8.03578125 13.83984375 -7.5390625 13.2421875 C-4.10071699 8.98986632 -1.25615559 5.44334091 0 0 Z " fill="#141314" transform="translate(323,419)"/>
<path d="M0 0 C0.33 0.66 0.66 1.32 1 2 C-0.14973177 5.44919532 -1.15140678 5.78953005 -4.1015625 7.6171875 C-8.15978408 10.57317605 -11.52905791 14.39022023 -15 18 C-15.33 17.01 -15.66 16.02 -16 15 C-15.27296875 14.38125 -15.27296875 14.38125 -14.53125 13.75 C-9.45749491 9.37876484 -4.67847866 4.79046352 0 0 Z " fill="#171718" transform="translate(240,634)"/>
<path d="M0 0 C0.66 0.33 1.32 0.66 2 1 C-0.76746117 3.62857454 -3.53953764 6.25223043 -6.3125 8.875 C-7.09818359 9.62136719 -7.88386719 10.36773437 -8.69335938 11.13671875 C-9.45068359 11.85214844 -10.20800781 12.56757813 -10.98828125 13.3046875 C-11.68477783 13.96452637 -12.38127441 14.62436523 -13.09887695 15.30419922 C-15 17 -15 17 -18 19 C-16.40965647 15.05669207 -13.67772141 12.41477094 -10.6875 9.5 C-10.21376953 9.02691406 -9.74003906 8.55382812 -9.25195312 8.06640625 C-6.31597478 5.16657538 -3.26491068 2.52153394 0 0 Z " fill="#181818" transform="translate(113,138)"/>
<path d="M0 0 C0.66 0.33 1.32 0.66 2 1 C1.15867159 11.16236162 1.15867159 11.16236162 -1 15 C-1.99 15.33 -2.98 15.66 -4 16 C-3.52546129 13.51986371 -3.04561015 11.04096744 -2.5625 8.5625 C-2.42779297 7.85544922 -2.29308594 7.14839844 -2.15429688 6.41992188 C-1.11328125 1.11328125 -1.11328125 1.11328125 0 0 Z " fill="#131314" transform="translate(687,477)"/>
<path d="M0 0 C0.42410156 0.37511719 0.84820312 0.75023437 1.28515625 1.13671875 C5.36517338 4.69664579 9.5513476 7.91317997 14 11 C13.67 11.66 13.34 12.32 13 13 C9.65291949 11.45158425 6.75332488 9.50894136 3.75 7.375 C2.85796875 6.74335938 1.9659375 6.11171875 1.046875 5.4609375 C0.03367187 4.73777344 0.03367187 4.73777344 -1 4 C-0.67 2.68 -0.34 1.36 0 0 Z " fill="#131313" transform="translate(287,389)"/>
<path d="M0 0 C0.50789062 0.38671875 1.01578125 0.7734375 1.5390625 1.171875 C5.61331983 4.25427193 9.71647931 7.21571155 14 10 C11.70056887 10.8212254 10.41623583 11.13426962 8.0625 10.375 C4.7301433 8.15342886 1.52917076 5.7767309 0.35546875 1.8359375 C0.23816406 1.23007812 0.12085938 0.62421875 0 0 Z " fill="#161616" transform="translate(251,363)"/>
<path d="M0 0 C-1.47721422 3.45201639 -3.43794001 5.64961936 -6.125 8.25 C-6.84945312 8.95640625 -7.57390625 9.6628125 -8.3203125 10.390625 C-8.87460938 10.92171875 -9.42890625 11.4528125 -10 12 C-10.66 11.34 -11.32 10.68 -12 10 C-10.38113585 8.32737283 -8.7547271 6.66204463 -7.125 5 C-6.22007812 4.071875 -5.31515625 3.14375 -4.3828125 2.1875 C-2 0 -2 0 0 0 Z " fill="#141413" transform="translate(258,676)"/>
<path d="M0 0 C1.46573934 0.90477737 2.92235756 1.82434141 4.375 2.75 C5.18710937 3.26046875 5.99921875 3.7709375 6.8359375 4.296875 C9.08555679 6.0673335 9.95906848 7.36907419 11 10 C6.39137539 8.50897439 3.46669756 6.30545582 0 3 C0 2.01 0 1.02 0 0 Z " fill="#161616" transform="translate(312,409)"/>
<path d="M0 0 C0.66 0 1.32 0 2 0 C0.50902342 3.7952131 -1.75700849 5.61042731 -5 8 C-3.63055898 5.05043472 -2.12169591 2.47531189 0 0 Z M-8 9 C-7.34 9.33 -6.68 9.66 -6 10 C-7.98 11.98 -9.96 13.96 -12 16 C-12.66 15.67 -13.32 15.34 -14 15 C-12.02 13.02 -10.04 11.04 -8 9 Z " fill="#050505" transform="translate(323,556)"/>
<path d="M0 0 C0.66 0 1.32 0 2 0 C0.45730076 4.72065967 -1.07794619 9.41664092 -3 14 C-3.66 13.01 -4.32 12.02 -5 11 C-4.35546875 8.5546875 -4.35546875 8.5546875 -3.1875 5.875 C-2.80980469 4.98554688 -2.43210937 4.09609375 -2.04296875 3.1796875 C-1 1 -1 1 0 0 Z " fill="#141413" transform="translate(395,432)"/>
<path d="M0 0 C1.508013 0.92455559 3.00624917 1.8650747 4.5 2.8125 C5.3353125 3.33457031 6.170625 3.85664063 7.03125 4.39453125 C7.6809375 4.92433594 8.330625 5.45414062 9 6 C9 6.99 9 7.98 9 9 C4.95579349 7.22054913 1.53921513 4.60470327 -2 2 C-1.34 1.34 -0.68 0.68 0 0 Z " fill="#121212" transform="translate(544,347)"/>
<path d="M0 0 C0.33 0 0.66 0 1 0 C1.46001702 3.14344966 1.48859148 5.2444928 -0.265625 7.95703125 C-1.77606107 9.75708978 -3.23148108 11.45140053 -5 13 C-5.66 13 -6.32 13 -7 13 C-5.88193568 10.48435529 -4.70466017 8.64201233 -2.9375 6.5 C-1.13355073 4.17232353 -0.42308458 2.8558209 0 0 Z " fill="#181717" transform="translate(324,294)"/>
<path d="M0 0 C0.66 0 1.32 0 2 0 C0.45730076 4.72065967 -1.07794619 9.41664092 -3 14 C-4.1484375 12.328125 -4.1484375 12.328125 -5 10 C-4.1015625 7.421875 -4.1015625 7.421875 -2.625 4.75 C-2.14289063 3.85796875 -1.66078125 2.9659375 -1.1640625 2.046875 C-0.77992188 1.37140625 -0.39578125 0.6959375 0 0 Z " fill="#161516" transform="translate(477,238)"/>
<path d="M0 0 C-3.11910856 1.79275866 -5.67682428 2.34290718 -9.25 2.625 C-10.14203125 2.69976563 -11.0340625 2.77453125 -11.953125 2.8515625 C-12.62859375 2.90054688 -13.3040625 2.94953125 -14 3 C-12 0 -12 0 -9.25 -0.75 C-5.94847384 -1.00396355 -3.22696171 -0.6914918 0 0 Z " fill="#1D1D1D" transform="translate(651,573)"/>
<path d="M0 0 C5.04424468 0.44508041 7.44443409 2.60980925 11 6 C11 6.66 11 7.32 11 8 C6.99698968 6.23867546 3.3971023 3.73867517 0 1 C0 0.67 0 0.34 0 0 Z " fill="#151515" transform="translate(257,422)"/>
<path d="M0 0 C0.33 0.99 0.66 1.98 1 3 C-1.99480917 3.8723412 -4.63575911 4.10829766 -7.75 4.0625 C-8.54921875 4.05347656 -9.3484375 4.04445313 -10.171875 4.03515625 C-10.77515625 4.02355469 -11.3784375 4.01195312 -12 4 C-9.14521674 2.09681116 -7.58058692 1.5380901 -4.3125 0.875 C-3.50425781 0.70742188 -2.69601563 0.53984375 -1.86328125 0.3671875 C-1.24839844 0.24601563 -0.63351563 0.12484375 0 0 Z " fill="#191818" transform="translate(212,715)"/>
<path d="M0 0 C1.36511719 0.29197266 1.36511719 0.29197266 2.7578125 0.58984375 C3.45648438 0.74582031 4.15515625 0.90179687 4.875 1.0625 C4.875 1.7225 4.875 2.3825 4.875 3.0625 C3.43663249 2.94791307 1.99929034 2.82040884 0.5625 2.6875 C-0.23800781 2.61789062 -1.03851563 2.54828125 -1.86328125 2.4765625 C-4.125 2.0625 -4.125 2.0625 -7.125 0.0625 C-4.4030754 -1.2984623 -2.9418043 -0.64116248 0 0 Z " fill="#131212" transform="translate(151.125,571.9375)"/>
<path d="M0 0 C0.99 0.66 1.98 1.32 3 2 C1.56570999 2.67354499 0.12742943 3.33859701 -1.3125 4 C-2.51326172 4.556875 -2.51326172 4.556875 -3.73828125 5.125 C-6 6 -6 6 -9 6 C-9 5.34 -9 4.68 -9 4 C-7.57086153 3.27494442 -6.13129342 2.57041565 -4.6875 1.875 C-3.88699219 1.48054687 -3.08648438 1.08609375 -2.26171875 0.6796875 C-1.51535156 0.45539062 -0.76898437 0.23109375 0 0 Z " fill="#151515" transform="translate(666,565)"/>
<path d="M0 0 C0.33 0.99 0.66 1.98 1 3 C-1.64 4.98 -4.28 6.96 -7 9 C-7.66 8.67 -8.32 8.34 -9 8 C-6.14723863 5.06799526 -3.34920216 2.35684596 0 0 Z " fill="#161516" transform="translate(686,553)"/>
<path d="M0 0 C0.6875 1.75 0.6875 1.75 1 4 C-0.60357433 7.20714865 -1.81625958 7.92794493 -5.1875 9.25 C-6.115625 9.4975 -7.04375 9.745 -8 10 C-7.59007812 9.52949219 -7.18015625 9.05898438 -6.7578125 8.57421875 C-6.21898437 7.95160156 -5.68015625 7.32898438 -5.125 6.6875 C-4.59132813 6.07261719 -4.05765625 5.45773437 -3.5078125 4.82421875 C-1.8359553 2.86501788 -1.8359553 2.86501788 0 0 Z " fill="#1A1A19" transform="translate(675,506)"/>
<path d="M0 0 C1.79068573 2.6860286 2.66055791 4.6626589 3.625 7.6875 C3.88539062 8.49574219 4.14578125 9.30398438 4.4140625 10.13671875 C4.60742188 10.75160156 4.80078125 11.36648438 5 12 C2 11 2 11 0.25 8.25 C-1.06883276 4.82103483 -1.10867421 3.42681118 0 0 Z " fill="#151515" transform="translate(116,490)"/>
<path d="M0 0 C1.48285242 0.95262034 2.96118201 1.91228405 4.4375 2.875 C5.67306641 3.67550781 5.67306641 3.67550781 6.93359375 4.4921875 C9 6 9 6 10 8 C5.61999924 7.49942848 3.15830185 6.06806466 0 3 C0 2.01 0 1.02 0 0 Z " fill="#151515" transform="translate(525,281)"/>
<path d="M0 0 C4.2742558 1.5830577 6.26531794 4.50568404 9 8 C8.67 8.66 8.34 9.32 8 10 C6.33333333 8.33333333 4.66666667 6.66666667 3 5 C2.401875 4.443125 1.80375 3.88625 1.1875 3.3125 C0 2 0 2 0 0 Z " fill="#181817" transform="translate(304,269)"/>
<path d="M0 0 C0.33 0 0.66 0 1 0 C1.22142255 1.95689659 1.4267568 3.91561952 1.625 5.875 C1.74101563 6.96554688 1.85703125 8.05609375 1.9765625 9.1796875 C1.98429687 10.11039063 1.99203125 11.04109375 2 12 C1.34 12.66 0.68 13.32 0 14 C-0.33 13.67 -0.66 13.34 -1 13 C-0.90982004 10.80949979 -0.75333792 8.621534 -0.5625 6.4375 C-0.46066406 5.23996094 -0.35882813 4.04242188 -0.25390625 2.80859375 C-0.17011719 1.88175781 -0.08632812 0.95492187 0 0 Z " fill="#1A1A1B" transform="translate(73,201)"/>
<path d="M0 0 C3.72617422 1.24205807 5.39291457 3.1110675 8 6 C8 6.66 8 7.32 8 8 C4.11137013 6.73882275 2.10624401 5.54735833 0 2 C0 1.34 0 0.68 0 0 Z " fill="#141313" transform="translate(186,708)"/>
<path d="M0 0 C0.66 0.33 1.32 0.66 2 1 C-2.18461538 6.78461538 -2.18461538 6.78461538 -6.3125 7.875 C-7.6428125 7.936875 -7.6428125 7.936875 -9 8 C-6.14723863 5.06799526 -3.34920216 2.35684596 0 0 Z " fill="#171717" transform="translate(515,391)"/>
<path d="M0 0 C-1.51671964 4.55015893 -5.16891053 6.50057264 -9 9 C-7.67183131 4.6532661 -5.0855272 0 0 0 Z " fill="#1A1A1A" transform="translate(256,352)"/>
<path d="M0 0 C0 0.66 0 1.32 0 2 C-1.96875 3.5078125 -1.96875 3.5078125 -4.5 5.125 C-5.3353125 5.66382813 -6.170625 6.20265625 -7.03125 6.7578125 C-7.6809375 7.16773438 -8.330625 7.57765625 -9 8 C-8.39958856 4.47165622 -8.12314151 4.09432115 -5.0625 1.75 C-2 0 -2 0 0 0 Z " fill="#161515" transform="translate(294,324)"/>
<path d="M0 0 C1.1875 1.6875 1.1875 1.6875 2 4 C0.625 6.625 0.625 6.625 -1 9 C-1 9.66 -1 10.32 -1 11 C-1.99 11.33 -2.98 11.66 -4 12 C-3.67 9.69 -3.34 7.38 -3 5 C-2.34 5 -1.68 5 -1 5 C-0.67 3.35 -0.34 1.7 0 0 Z " fill="#181818" transform="translate(419,265)"/>
<path d="M0 0 C0.66 0 1.32 0 2 0 C0.515 6.435 0.515 6.435 -1 13 C-3 9 -3 9 -2.5390625 6.640625 C-2.23742187 5.85171875 -1.93578125 5.0628125 -1.625 4.25 C-1.32851562 3.45078125 -1.03203125 2.6515625 -0.7265625 1.828125 C-0.48679687 1.22484375 -0.24703125 0.6215625 0 0 Z " fill="#151516" transform="translate(116,199)"/>
<path d="M0 0 C0.99 0.33 1.98 0.66 3 1 C-1.455 4.465 -1.455 4.465 -6 8 C-6.33 7.01 -6.66 6.02 -7 5 C-5.90554162 4.13342884 -4.79902219 3.28207276 -3.6875 2.4375 C-3.07261719 1.96183594 -2.45773437 1.48617188 -1.82421875 0.99609375 C-1.22222656 0.66738281 -0.62023437 0.33867187 0 0 Z " fill="#151515" transform="translate(521,440)"/>
<path d="M0 0 C0.99 0.33 1.98 0.66 3 1 C-0.01887244 4.48331435 -2.56909529 5.79157144 -7 7 C-4.78071806 4.09197539 -3.07030857 2.04687238 0 0 Z " fill="#131314" transform="translate(248,627)"/>
<path d="M0 0 C0 0.66 0 1.32 0 2 C-1.96875 3.5078125 -1.96875 3.5078125 -4.5 5.125 C-5.3353125 5.66382813 -6.170625 6.20265625 -7.03125 6.7578125 C-7.6809375 7.16773438 -8.330625 7.57765625 -9 8 C-8.39958856 4.47165622 -8.12314151 4.09432115 -5.0625 1.75 C-2 0 -2 0 0 0 Z " fill="#171717" transform="translate(535,431)"/>
<path d="M0 0 C0.66 0.33 1.32 0.66 2 1 C-0.97 3.64 -3.94 6.28 -7 9 C-7.66 8.34 -8.32 7.68 -9 7 C-6.57230647 4.57230647 -3.86090482 2.88697978 -1 1 C-0.67 0.67 -0.34 0.34 0 0 Z " fill="#1B1B1C" transform="translate(544,369)"/>
<path d="M0 0 C4.43458973 1.3937282 6.87378374 3.60582235 10 7 C8.35 6.67 6.7 6.34 5 6 C5 5.34 5 4.68 5 4 C4.360625 3.896875 3.72125 3.79375 3.0625 3.6875 C2.381875 3.460625 1.70125 3.23375 1 3 C0.67 2.01 0.34 1.02 0 0 Z " fill="#131313" transform="translate(573,318)"/>
<path d="M0 0 C0.33 0.99 0.66 1.98 1 3 C-1.31 4.98 -3.62 6.96 -6 9 C-4.86634892 4.46539569 -3.35806626 3.09975347 0 0 Z " fill="#171716" transform="translate(136,171)"/>
<path d="M0 0 C0.99 0.66 1.98 1.32 3 2 C0.36 3.65 -2.28 5.3 -5 7 C-5 6.01 -5 5.02 -5 4 C-2.5 1.8125 -2.5 1.8125 0 0 Z " fill="#161616" transform="translate(362,578)"/>
<path d="M0 0 C0.33 0.99 0.66 1.98 1 3 C-0.62339805 4.70884005 -2.29319053 6.37446717 -4 8 C-4.66 8 -5.32 8 -6 8 C-4.55746343 4.63408134 -2.66735273 2.48952921 0 0 Z " fill="#181717" transform="translate(699,542)"/>
<path d="M0 0 C0.66 0 1.32 0 2 0 C1.01 3.3 0.02 6.6 -1 10 C-1.66 8.68 -2.32 7.36 -3 6 C-1.625 2.75 -1.625 2.75 0 0 Z " fill="#161515" transform="translate(422,368)"/>
<path d="M0 0 C0.66 0.33 1.32 0.66 2 1 C0.52307692 6.66153846 0.52307692 6.66153846 -2.125 8.375 C-2.74375 8.58125 -3.3625 8.7875 -4 9 C-2.80100302 5.9168649 -1.52299523 2.93720508 0 0 Z " fill="#141415" transform="translate(85,170)"/>
<path d="M0 0 C0.66 0 1.32 0 2 0 C2.33 1.32 2.66 2.64 3 4 C2.34 4 1.68 4 1 4 C0.67 5.32 0.34 6.64 0 8 C-0.38063221 5.6739143 -0.71269945 3.33944736 -1 1 C-0.67 0.67 -0.34 0.34 0 0 Z " fill="#191919" transform="translate(725,490)"/>
<path d="M0 0 C0.66 0 1.32 0 2 0 C1.01 2.97 0.02 5.94 -1 9 C-1.66 8.01 -2.32 7.02 -3 6 C-2.01 4.02 -1.02 2.04 0 0 Z " fill="#171717" transform="translate(385,456)"/>
<path d="M0 0 C-1.45255699 3.82946843 -3.42895561 5.12050295 -7 7 C-6.61402985 4.20171644 -6.19863427 3.1794116 -4.0625 1.25 C-2 0 -2 0 0 0 Z " fill="#151516" transform="translate(280,334)"/>
<path d="M0 0 C2.97 0.33 5.94 0.66 9 1 C8.67 1.66 8.34 2.32 8 3 C4.71585695 3.95067299 3.30306592 4.10102197 0 3 C0 2.01 0 1.02 0 0 Z " fill="#1E1D1D" transform="translate(652,121)"/>
<path d="M0 0 C0.66 0 1.32 0 2 0 C1.01 2.97 0.02 5.94 -1 9 C-1.66 8.01 -2.32 7.02 -3 6 C-2.01 4.02 -1.02 2.04 0 0 Z " fill="#131312" transform="translate(404,411)"/>
<path d="M0 0 C0.66 0.33 1.32 0.66 2 1 C1.1875 4.4375 1.1875 4.4375 0 8 C-0.99 8.33 -1.98 8.66 -3 9 C-2.01 6.03 -1.02 3.06 0 0 Z " fill="#131313" transform="translate(369,384)"/>
<path d="M0 0 C0.66 0 1.32 0 2 0 C1.01 2.97 0.02 5.94 -1 9 C-1.66 8.01 -2.32 7.02 -3 6 C-2.01 4.02 -1.02 2.04 0 0 Z " fill="#171718" transform="translate(461,276)"/>
<path d="M0 0 C2.625 1.25 2.625 1.25 5 3 C5 3.99 5 4.98 5 6 C2.11562221 4.70700306 0.12780579 3.34058637 -2 1 C-1.34 0.67 -0.68 0.34 0 0 Z " fill="#131312" transform="translate(661,170)"/>
<path d="M0 0 C3.37503669 1.1858237 5.64722731 2.27573689 8 5 C4.62537285 4.45276317 2.91765 3.9451 0 2 C0 1.34 0 0.68 0 0 Z " fill="#171718" transform="translate(679,134)"/>
<path d="M0 0 C5.75 1.75 5.75 1.75 8 4 C6.25 4.75 6.25 4.75 4 5 C1.75 3.125 1.75 3.125 0 1 C0 0.67 0 0.34 0 0 Z " fill="#181818" transform="translate(667,127)"/>
<path d="M0 0 C3.3 0 6.6 0 10 0 C10 0.66 10 1.32 10 2 C7.36 2.33 4.72 2.66 2 3 C2 2.34 2 1.68 2 1 C1.34 0.67 0.68 0.34 0 0 Z " fill="#202020" transform="translate(637,118)"/>
<path d="M0 0 C-1.32 0.33 -2.64 0.66 -4 1 C-4 1.66 -4 2.32 -4 3 C-6.64 2.67 -9.28 2.34 -12 2 C-12 1.67 -12 1.34 -12 1 C-7.93631321 0.22596442 -4.13574827 -0.0984702 0 0 Z " fill="#242324" transform="translate(170,117)"/>
<path d="M0 0 C0.66 0 1.32 0 2 0 C1.01 2.97 0.02 5.94 -1 9 C-1.33 9 -1.66 9 -2 9 C-2.25 3.375 -2.25 3.375 0 0 Z " fill="#1A191A" transform="translate(379,470)"/>
<path d="M0 0 C3 2 3 2 3.6875 4.625 C3.8421875 5.800625 3.8421875 5.800625 4 7 C3.01 7.33 2.02 7.66 1 8 C-0.35439668 5.29120665 -0.06501451 2.99066732 0 0 Z " fill="#1E1D1E" transform="translate(481,419)"/>
<path d="M0 0 C2.15377564 2.62198774 3.40072174 4.64404172 4 8 C1 7 1 7 -0.25 4.5625 C-1 2 -1 2 0 0 Z " fill="#121212" transform="translate(714,169)"/>
<path d="M0 0 C1.98 0 3.96 0 6 0 C6 0.33 6 0.66 6 1 C4.02 1 2.04 1 0 1 C0 0.67 0 0.34 0 0 Z " fill="#302F2F" transform="translate(438,578)"/>
<path d="M0 0 C1.98 0 3.96 0 6 0 C6 0.33 6 0.66 6 1 C4.02 1 2.04 1 0 1 C0 0.67 0 0.34 0 0 Z " fill="#313030" transform="translate(285,161)"/>
<path d="M0 0 C1.65 0 3.3 0 5 0 C5 0.33 5 0.66 5 1 C3.35 1 1.7 1 0 1 C0 0.67 0 0.34 0 0 Z " fill="#303030" transform="translate(486,578)"/>
<path d="M0 0 C1.65 0 3.3 0 5 0 C5 0.33 5 0.66 5 1 C3.35 1 1.7 1 0 1 C0 0.67 0 0.34 0 0 Z " fill="#313030" transform="translate(462,578)"/>
<path d="M0 0 C1.65 0 3.3 0 5 0 C5 0.33 5 0.66 5 1 C3.35 1 1.7 1 0 1 C0 0.67 0 0.34 0 0 Z " fill="#303030" transform="translate(430,578)"/>
<path d="M0 0 C1.65 0 3.3 0 5 0 C5 0.33 5 0.66 5 1 C3.35 1 1.7 1 0 1 C0 0.67 0 0.34 0 0 Z " fill="#313030" transform="translate(269,161)"/>
<path d="M0 0 C4 1 4 1 4 1 Z " fill="#313030" transform="translate(480,578)"/>
<path d="M0 0 C4 1 4 1 4 1 Z " fill="#313030" transform="translate(456,578)"/>
<path d="M0 0 C4 1 4 1 4 1 Z " fill="#323131" transform="translate(350,161)"/>
<path d="M0 0 C4 1 4 1 4 1 Z " fill="#333132" transform="translate(190,161)"/>
<path d="M0 0 C3 1 3 1 3 1 Z " fill="#313130" transform="translate(609,578)"/>
<path d="M0 0 C3 1 3 1 3 1 Z " fill="#303230" transform="translate(497,578)"/>
<path d="M0 0 C3 1 3 1 3 1 Z " fill="#313130" transform="translate(416,578)"/>
<path d="M0 0 C3 1 3 1 3 1 Z " fill="#323131" transform="translate(574,161)"/>
<path d="M0 0 C3 1 3 1 3 1 Z " fill="#313031" transform="translate(397,161)"/>
<path d="M0 0 C3 1 3 1 3 1 Z " fill="#313030" transform="translate(365,161)"/>
<path d="M0 0 C3 1 3 1 3 1 Z " fill="#313030" transform="translate(357,161)"/>
<path d="M0 0 C3 1 3 1 3 1 Z " fill="#313031" transform="translate(294,161)"/>
<path d="M0 0 C3 1 3 1 3 1 Z " fill="#323031" transform="translate(278,161)"/>
<path d="M0 0 C3 1 3 1 3 1 Z " fill="#312F2F" transform="translate(222,161)"/>
<path d="M0 0 C3 1 3 1 3 1 Z " fill="#323232" transform="translate(128,126)"/>
<path d="" fill="#2E2E2D" transform="translate(0,0)"/>
<path d="" fill="#2C2D2D" transform="translate(0,0)"/>
<path d="M0 0 C2 1 2 1 2 1 Z " fill="#303130" transform="translate(593,578)"/>
<path d="M0 0 C2 1 2 1 2 1 Z " fill="#323231" transform="translate(577,578)"/>
<path d="M0 0 C2 1 2 1 2 1 Z " fill="#303030" transform="translate(569,578)"/>
<path d="M0 0 C2 1 2 1 2 1 Z " fill="#30322F" transform="translate(521,578)"/>
<path d="M0 0 C2 1 2 1 2 1 Z " fill="#313030" transform="translate(502,578)"/>
<path d="M0 0 C2 1 2 1 2 1 Z " fill="#303130" transform="translate(473,578)"/>
<path d="M0 0 C2 1 2 1 2 1 Z " fill="#30312F" transform="translate(425,578)"/>
<path d="M0 0 C2 1 2 1 2 1 Z " fill="#2F312F" transform="translate(388,578)"/>
<path d="M0 0 C2 1 2 1 2 1 Z " fill="#30302F" transform="translate(377,578)"/>
<path d="M0 0 C2 1 2 1 2 1 Z " fill="#2E2F2F" transform="translate(104,551)"/>
<path d="M0 0 C2 1 2 1 2 1 Z " fill="#2D2E2F" transform="translate(350,534)"/>
<path d="M0 0 C2 1 2 1 2 1 Z " fill="#323032" transform="translate(648,526)"/>
<path d="M0 0 C2 1 2 1 2 1 Z " fill="#2D2E2F" transform="translate(149,526)"/>
<path d="" fill="#302F2F" transform="translate(0,0)"/>
<path d="" fill="#323134" transform="translate(0,0)"/>
<path d="" fill="#2C2C2C" transform="translate(0,0)"/>
<path d="M0 0 C2 1 2 1 2 1 Z " fill="#343434" transform="translate(329,487)"/>
<path d="" fill="#343332" transform="translate(0,0)"/>
<path d="M0 0 C2 1 2 1 2 1 Z " fill="#303130" transform="translate(496,399)"/>
<path d="" fill="#2F2C2E" transform="translate(0,0)"/>
<path d="M0 0 C2 1 2 1 2 1 Z " fill="#313031" transform="translate(184,350)"/>
<path d="" fill="#302F31" transform="translate(0,0)"/>
<path d="M0 0 C2 1 2 1 2 1 Z " fill="#313030" transform="translate(194,342)"/>
<path d="" fill="#2C2B2C" transform="translate(0,0)"/>
<path d="" fill="#2C2D2E" transform="translate(0,0)"/>
<path d="M0 0 C2 1 2 1 2 1 Z " fill="#2F2F2F" transform="translate(257,295)"/>
<path d="M0 0 C2 1 2 1 2 1 Z " fill="#2E2C2C" transform="translate(544,294)"/>
<path d="" fill="#302F2F" transform="translate(0,0)"/>
<path d="" fill="#2E2E2D" transform="translate(0,0)"/>
<path d="" fill="#302F2F" transform="translate(0,0)"/>
<path d="" fill="#313131" transform="translate(0,0)"/>
<path d="M0 0 C2 1 2 1 2 1 Z " fill="#31302F" transform="translate(156,164)"/>
<path d="M0 0 C2 1 2 1 2 1 Z " fill="#303031" transform="translate(606,161)"/>
<path d="M0 0 C2 1 2 1 2 1 Z " fill="#313030" transform="translate(582,161)"/>
<path d="M0 0 C2 1 2 1 2 1 Z " fill="#30302F" transform="translate(565,161)"/>
<path d="M0 0 C2 1 2 1 2 1 Z " fill="#323131" transform="translate(558,161)"/>
<path d="M0 0 C2 1 2 1 2 1 Z " fill="#313130" transform="translate(550,161)"/>
<path d="M0 0 C2 1 2 1 2 1 Z " fill="#313131" transform="translate(534,161)"/>
<path d="M0 0 C2 1 2 1 2 1 Z " fill="#323130" transform="translate(525,161)"/>
<path d="M0 0 C2 1 2 1 2 1 Z " fill="#323031" transform="translate(502,161)"/>
<path d="M0 0 C2 1 2 1 2 1 Z " fill="#313031" transform="translate(478,161)"/>
<path d="M0 0 C2 1 2 1 2 1 Z " fill="#323130" transform="translate(438,161)"/>
<path d="M0 0 C2 1 2 1 2 1 Z " fill="#323131" transform="translate(430,161)"/>
<path d="M0 0 C2 1 2 1 2 1 Z " fill="#323130" transform="translate(382,161)"/>
<path d="M0 0 C2 1 2 1 2 1 Z " fill="#323131" transform="translate(309,161)"/>
<path d="M0 0 C2 1 2 1 2 1 Z " fill="#302F2F" transform="translate(262,161)"/>
<path d="M0 0 C2 1 2 1 2 1 Z " fill="#313030" transform="translate(246,161)"/>
<path d="M0 0 C2 1 2 1 2 1 Z " fill="#313030" transform="translate(198,161)"/>
<path d="M0 0 C2 1 2 1 2 1 Z " fill="#313032" transform="translate(105,142)"/>
<path d="" fill="#2E2E2F" transform="translate(0,0)"/>
<path d="" fill="#343333" transform="translate(0,0)"/>
<path d="" fill="#303130" transform="translate(0,0)"/>
<path d="" fill="#2F2F2F" transform="translate(0,0)"/>
<path d="" fill="#2E2F2F" transform="translate(0,0)"/>
<path d="" fill="#2F2E2E" transform="translate(0,0)"/>
<path d="" fill="#2D2D2D" transform="translate(0,0)"/>
<path d="" fill="#2A2928" transform="translate(0,0)"/>
<path d="" fill="#302E2D" transform="translate(0,0)"/>
<path d="" fill="#2B2A29" transform="translate(0,0)"/>
<path d="" fill="#2A292A" transform="translate(0,0)"/>
<path d="" fill="#2C2C2D" transform="translate(0,0)"/>
<path d="" fill="#2C2B2C" transform="translate(0,0)"/>
<path d="" fill="#2E3031" transform="translate(0,0)"/>
<path d="" fill="#2B2C2C" transform="translate(0,0)"/>
<path d="" fill="#2A2A2C" transform="translate(0,0)"/>
<path d="" fill="#2B2B2C" transform="translate(0,0)"/>
<path d="" fill="#2B2C2B" transform="translate(0,0)"/>
<path d="" fill="#2B2E2D" transform="translate(0,0)"/>
<path d="" fill="#292A2B" transform="translate(0,0)"/>
<path d="" fill="#312E2E" transform="translate(0,0)"/>
<path d="" fill="#2F2E2D" transform="translate(0,0)"/>
<path d="" fill="#333331" transform="translate(0,0)"/>
<path d="" fill="#323330" transform="translate(0,0)"/>
<path d="" fill="#323033" transform="translate(0,0)"/>
<path d="" fill="#313130" transform="translate(0,0)"/>
<path d="" fill="#31302E" transform="translate(0,0)"/>
<path d="" fill="#2F302F" transform="translate(0,0)"/>
<path d="" fill="#303132" transform="translate(0,0)"/>
<path d="" fill="#323031" transform="translate(0,0)"/>
<path d="" fill="#303131" transform="translate(0,0)"/>
<path d="" fill="#343232" transform="translate(0,0)"/>
<path d="" fill="#313230" transform="translate(0,0)"/>
<path d="" fill="#303230" transform="translate(0,0)"/>
<path d="" fill="#302F2F" transform="translate(0,0)"/>
<path d="" fill="#2F302E" transform="translate(0,0)"/>
<path d="" fill="#303031" transform="translate(0,0)"/>
<path d="" fill="#30302F" transform="translate(0,0)"/>
<path d="" fill="#31312F" transform="translate(0,0)"/>
<path d="" fill="#303030" transform="translate(0,0)"/>
<path d="" fill="#303130" transform="translate(0,0)"/>
<path d="" fill="#313230" transform="translate(0,0)"/>
<path d="" fill="#2F3030" transform="translate(0,0)"/>
<path d="" fill="#302F32" transform="translate(0,0)"/>
<path d="" fill="#31322F" transform="translate(0,0)"/>
<path d="" fill="#2E2E30" transform="translate(0,0)"/>
<path d="" fill="#31322F" transform="translate(0,0)"/>
<path d="" fill="#31322F" transform="translate(0,0)"/>
<path d="" fill="#33312F" transform="translate(0,0)"/>
<path d="" fill="#31302F" transform="translate(0,0)"/>
<path d="" fill="#312F2E" transform="translate(0,0)"/>
<path d="" fill="#2F2E2E" transform="translate(0,0)"/>
<path d="" fill="#2E2E2F" transform="translate(0,0)"/>
<path d="" fill="#323232" transform="translate(0,0)"/>
<path d="" fill="#2E2C2D" transform="translate(0,0)"/>
<path d="" fill="#2D2B2F" transform="translate(0,0)"/>
<path d="" fill="#313132" transform="translate(0,0)"/>
<path d="" fill="#323331" transform="translate(0,0)"/>
<path d="" fill="#2D2D2F" transform="translate(0,0)"/>
<path d="" fill="#2B2C2F" transform="translate(0,0)"/>
<path d="" fill="#312F31" transform="translate(0,0)"/>
<path d="" fill="#312E2E" transform="translate(0,0)"/>
<path d="" fill="#2D2D2D" transform="translate(0,0)"/>
<path d="" fill="#323030" transform="translate(0,0)"/>
<path d="" fill="#30302F" transform="translate(0,0)"/>
<path d="" fill="#313231" transform="translate(0,0)"/>
<path d="" fill="#30312F" transform="translate(0,0)"/>
<path d="" fill="#30312E" transform="translate(0,0)"/>
<path d="" fill="#2F2F2F" transform="translate(0,0)"/>
<path d="" fill="#343432" transform="translate(0,0)"/>
<path d="" fill="#302E2F" transform="translate(0,0)"/>
<path d="" fill="#2E2E2C" transform="translate(0,0)"/>
<path d="" fill="#2D2E2B" transform="translate(0,0)"/>
<path d="" fill="#2D2E2D" transform="translate(0,0)"/>
<path d="" fill="#2F2E2D" transform="translate(0,0)"/>
<path d="" fill="#2F302C" transform="translate(0,0)"/>
<path d="" fill="#322E30" transform="translate(0,0)"/>
<path d="" fill="#313031" transform="translate(0,0)"/>
<path d="" fill="#32312F" transform="translate(0,0)"/>
<path d="" fill="#2E2E2E" transform="translate(0,0)"/>
<path d="" fill="#303130" transform="translate(0,0)"/>
<path d="" fill="#333132" transform="translate(0,0)"/>
<path d="" fill="#323130" transform="translate(0,0)"/>
<path d="" fill="#343433" transform="translate(0,0)"/>
<path d="" fill="#333131" transform="translate(0,0)"/>
<path d="" fill="#323131" transform="translate(0,0)"/>
<path d="" fill="#2B2D2D" transform="translate(0,0)"/>
<path d="" fill="#2E2D2E" transform="translate(0,0)"/>
<path d="" fill="#303130" transform="translate(0,0)"/>
<path d="" fill="#313030" transform="translate(0,0)"/>
<path d="" fill="#323030" transform="translate(0,0)"/>
<path d="" fill="#353435" transform="translate(0,0)"/>
<path d="" fill="#2F2F2E" transform="translate(0,0)"/>
<path d="" fill="#2F302E" transform="translate(0,0)"/>
<path d="" fill="#343332" transform="translate(0,0)"/>
<path d="" fill="#353433" transform="translate(0,0)"/>
<path d="" fill="#303031" transform="translate(0,0)"/>
<path d="" fill="#343333" transform="translate(0,0)"/>
<path d="" fill="#323132" transform="translate(0,0)"/>
<path d="" fill="#313132" transform="translate(0,0)"/>
<path d="" fill="#2E2E2E" transform="translate(0,0)"/>
<path d="" fill="#323334" transform="translate(0,0)"/>
<path d="" fill="#2C2B2C" transform="translate(0,0)"/>
<path d="" fill="#312F30" transform="translate(0,0)"/>
<path d="" fill="#2F302D" transform="translate(0,0)"/>
<path d="" fill="#2D2F2F" transform="translate(0,0)"/>
<path d="" fill="#343332" transform="translate(0,0)"/>
<path d="" fill="#31312D" transform="translate(0,0)"/>
<path d="" fill="#2E2C2D" transform="translate(0,0)"/>
<path d="" fill="#2C2C2C" transform="translate(0,0)"/>
<path d="" fill="#2E2C2B" transform="translate(0,0)"/>
<path d="" fill="#2D292B" transform="translate(0,0)"/>
<path d="" fill="#302D2E" transform="translate(0,0)"/>
<path d="" fill="#302E2F" transform="translate(0,0)"/>
<path d="" fill="#313132" transform="translate(0,0)"/>
<path d="" fill="#2F2C2F" transform="translate(0,0)"/>
<path d="" fill="#313030" transform="translate(0,0)"/>
<path d="" fill="#2B2D2B" transform="translate(0,0)"/>
<path d="" fill="#313233" transform="translate(0,0)"/>
<path d="" fill="#313130" transform="translate(0,0)"/>
<path d="" fill="#2F2F2E" transform="translate(0,0)"/>
<path d="" fill="#2D2D2D" transform="translate(0,0)"/>
<path d="" fill="#333335" transform="translate(0,0)"/>
<path d="" fill="#303032" transform="translate(0,0)"/>
<path d="" fill="#303132" transform="translate(0,0)"/>
<path d="" fill="#2D2B2D" transform="translate(0,0)"/>
<path d="" fill="#2E2C2C" transform="translate(0,0)"/>
<path d="" fill="#2E2E2D" transform="translate(0,0)"/>
<path d="" fill="#2F2F2F" transform="translate(0,0)"/>
<path d="" fill="#303031" transform="translate(0,0)"/>
<path d="" fill="#2E2D2F" transform="translate(0,0)"/>
<path d="" fill="#2F2E2E" transform="translate(0,0)"/>
<path d="" fill="#313030" transform="translate(0,0)"/>
<path d="" fill="#322F2F" transform="translate(0,0)"/>
<path d="" fill="#2F2B29" transform="translate(0,0)"/>
<path d="" fill="#31312E" transform="translate(0,0)"/>
<path d="" fill="#303030" transform="translate(0,0)"/>
<path d="" fill="#2F2F2E" transform="translate(0,0)"/>
<path d="" fill="#2E2E2D" transform="translate(0,0)"/>
<path d="" fill="#2D2E2E" transform="translate(0,0)"/>
<path d="" fill="#2E2C2D" transform="translate(0,0)"/>
<path d="" fill="#312E2F" transform="translate(0,0)"/>
<path d="" fill="#2F2D2D" transform="translate(0,0)"/>
<path d="" fill="#302F32" transform="translate(0,0)"/>
<path d="" fill="#2B2A2B" transform="translate(0,0)"/>
<path d="" fill="#333130" transform="translate(0,0)"/>
<path d="" fill="#2F2C2D" transform="translate(0,0)"/>
<path d="" fill="#323333" transform="translate(0,0)"/>
<path d="" fill="#2F2E2E" transform="translate(0,0)"/>
<path d="" fill="#313131" transform="translate(0,0)"/>
<path d="" fill="#323231" transform="translate(0,0)"/>
<path d="" fill="#2F2F2E" transform="translate(0,0)"/>
<path d="" fill="#2F2F30" transform="translate(0,0)"/>
<path d="" fill="#30302F" transform="translate(0,0)"/>
<path d="" fill="#30302E" transform="translate(0,0)"/>
<path d="" fill="#2C2C2D" transform="translate(0,0)"/>
<path d="" fill="#333032" transform="translate(0,0)"/>
<path d="" fill="#333232" transform="translate(0,0)"/>
<path d="" fill="#2F2D2B" transform="translate(0,0)"/>
<path d="" fill="#2D2D2F" transform="translate(0,0)"/>
<path d="" fill="#2A2A2C" transform="translate(0,0)"/>
<path d="" fill="#323234" transform="translate(0,0)"/>
<path d="" fill="#38383A" transform="translate(0,0)"/>
<path d="" fill="#30312E" transform="translate(0,0)"/>
<path d="" fill="#333233" transform="translate(0,0)"/>
<path d="" fill="#2D2F2D" transform="translate(0,0)"/>
<path d="" fill="#2F2F2E" transform="translate(0,0)"/>
<path d="" fill="#312E31" transform="translate(0,0)"/>
<path d="" fill="#2E2D2B" transform="translate(0,0)"/>
<path d="" fill="#2D2F2F" transform="translate(0,0)"/>
<path d="" fill="#312E2E" transform="translate(0,0)"/>
<path d="" fill="#2F2E2D" transform="translate(0,0)"/>
<path d="" fill="#2F2E2F" transform="translate(0,0)"/>
<path d="" fill="#2F2D2D" transform="translate(0,0)"/>
<path d="" fill="#313132" transform="translate(0,0)"/>
<path d="" fill="#2F2F2F" transform="translate(0,0)"/>
<path d="" fill="#2F2E2E" transform="translate(0,0)"/>
<path d="" fill="#2D2B2C" transform="translate(0,0)"/>
<path d="" fill="#30312E" transform="translate(0,0)"/>
<path d="" fill="#2B2C2D" transform="translate(0,0)"/>
<path d="" fill="#2E2F2E" transform="translate(0,0)"/>
<path d="" fill="#2E2D2D" transform="translate(0,0)"/>
<path d="" fill="#2D2D2C" transform="translate(0,0)"/>
<path d="" fill="#2D2D2C" transform="translate(0,0)"/>
<path d="" fill="#2E2D2D" transform="translate(0,0)"/>
<path d="" fill="#2F302E" transform="translate(0,0)"/>
<path d="" fill="#2E2E2E" transform="translate(0,0)"/>
<path d="" fill="#2F2F2F" transform="translate(0,0)"/>
<path d="" fill="#2C2B2D" transform="translate(0,0)"/>
<path d="" fill="#2E2D2D" transform="translate(0,0)"/>
<path d="" fill="#302F2D" transform="translate(0,0)"/>
<path d="" fill="#2D2C2D" transform="translate(0,0)"/>
<path d="" fill="#2B2C2E" transform="translate(0,0)"/>
<path d="" fill="#2D2D2D" transform="translate(0,0)"/>
<path d="" fill="#2F3130" transform="translate(0,0)"/>
<path d="" fill="#2F2D2F" transform="translate(0,0)"/>
<path d="" fill="#2F2C2E" transform="translate(0,0)"/>
<path d="" fill="#2D2D2D" transform="translate(0,0)"/>
<path d="" fill="#313030" transform="translate(0,0)"/>
<path d="" fill="#2F2F2D" transform="translate(0,0)"/>
<path d="" fill="#2D2D2E" transform="translate(0,0)"/>
<path d="" fill="#2E2F2D" transform="translate(0,0)"/>
<path d="" fill="#2D2A2A" transform="translate(0,0)"/>
<path d="" fill="#2E2D2F" transform="translate(0,0)"/>
<path d="" fill="#323132" transform="translate(0,0)"/>
<path d="" fill="#302E2E" transform="translate(0,0)"/>
<path d="" fill="#2D2D2D" transform="translate(0,0)"/>
<path d="" fill="#2C2C2F" transform="translate(0,0)"/>
<path d="" fill="#2F3033" transform="translate(0,0)"/>
<path d="" fill="#302D30" transform="translate(0,0)"/>
<path d="" fill="#2A2B2D" transform="translate(0,0)"/>
<path d="" fill="#2D2F2D" transform="translate(0,0)"/>
<path d="" fill="#2D2E2D" transform="translate(0,0)"/>
<path d="" fill="#2F2E2F" transform="translate(0,0)"/>
<path d="" fill="#2C2B2B" transform="translate(0,0)"/>
<path d="" fill="#2D2D2C" transform="translate(0,0)"/>
<path d="" fill="#2F2D2E" transform="translate(0,0)"/>
<path d="" fill="#2F3030" transform="translate(0,0)"/>
<path d="" fill="#2F2B2B" transform="translate(0,0)"/>
<path d="" fill="#2E2F30" transform="translate(0,0)"/>
<path d="" fill="#303031" transform="translate(0,0)"/>
<path d="" fill="#312F30" transform="translate(0,0)"/>
<path d="" fill="#302F30" transform="translate(0,0)"/>
<path d="" fill="#2F2D2D" transform="translate(0,0)"/>
<path d="" fill="#302F2F" transform="translate(0,0)"/>
<path d="" fill="#313130" transform="translate(0,0)"/>
<path d="" fill="#30312F" transform="translate(0,0)"/>
<path d="" fill="#302F2F" transform="translate(0,0)"/>
<path d="" fill="#313131" transform="translate(0,0)"/>
<path d="" fill="#303130" transform="translate(0,0)"/>
<path d="" fill="#2B2C2A" transform="translate(0,0)"/>
<path d="" fill="#333230" transform="translate(0,0)"/>
<path d="" fill="#2E2C2F" transform="translate(0,0)"/>
<path d="" fill="#2D2C2E" transform="translate(0,0)"/>
<path d="" fill="#312F31" transform="translate(0,0)"/>
<path d="" fill="#383737" transform="translate(0,0)"/>
<path d="" fill="#312F2F" transform="translate(0,0)"/>
<path d="" fill="#312F2E" transform="translate(0,0)"/>
<path d="" fill="#2D2C2D" transform="translate(0,0)"/>
<path d="" fill="#2C2C2B" transform="translate(0,0)"/>
<path d="" fill="#2D2C2D" transform="translate(0,0)"/>
<path d="" fill="#2D2C2D" transform="translate(0,0)"/>
<path d="" fill="#2C2D2B" transform="translate(0,0)"/>
<path d="" fill="#312F30" transform="translate(0,0)"/>
<path d="" fill="#2E2F2F" transform="translate(0,0)"/>
<path d="" fill="#303131" transform="translate(0,0)"/>
<path d="" fill="#2F2D2D" transform="translate(0,0)"/>
<path d="" fill="#323131" transform="translate(0,0)"/>
<path d="" fill="#2F2E2C" transform="translate(0,0)"/>
<path d="" fill="#2F302E" transform="translate(0,0)"/>
<path d="" fill="#302F2D" transform="translate(0,0)"/>
<path d="" fill="#333433" transform="translate(0,0)"/>
<path d="" fill="#313131" transform="translate(0,0)"/>
<path d="" fill="#313130" transform="translate(0,0)"/>
<path d="" fill="#2F2E2C" transform="translate(0,0)"/>
<path d="" fill="#313030" transform="translate(0,0)"/>
<path d="" fill="#302E2C" transform="translate(0,0)"/>
<path d="" fill="#323130" transform="translate(0,0)"/>
<path d="" fill="#30302F" transform="translate(0,0)"/>
<path d="" fill="#30302F" transform="translate(0,0)"/>
<path d="" fill="#313131" transform="translate(0,0)"/>
<path d="" fill="#313030" transform="translate(0,0)"/>
<path d="" fill="#303031" transform="translate(0,0)"/>
<path d="" fill="#333132" transform="translate(0,0)"/>
<path d="" fill="#313031" transform="translate(0,0)"/>
<path d="" fill="#33312F" transform="translate(0,0)"/>
<path d="" fill="#343133" transform="translate(0,0)"/>
<path d="" fill="#323330" transform="translate(0,0)"/>
<path d="" fill="#313231" transform="translate(0,0)"/>
<path d="" fill="#333331" transform="translate(0,0)"/>
<path d="" fill="#323131" transform="translate(0,0)"/>
<path d="" fill="#343232" transform="translate(0,0)"/>
<path d="" fill="#323130" transform="translate(0,0)"/>
<path d="" fill="#323131" transform="translate(0,0)"/>
<path d="" fill="#323131" transform="translate(0,0)"/>
<path d="" fill="#313030" transform="translate(0,0)"/>
<path d="" fill="#323031" transform="translate(0,0)"/>
<path d="" fill="#313030" transform="translate(0,0)"/>
<path d="" fill="#323130" transform="translate(0,0)"/>
<path d="" fill="#323131" transform="translate(0,0)"/>
<path d="" fill="#323231" transform="translate(0,0)"/>
<path d="" fill="#323131" transform="translate(0,0)"/>
<path d="" fill="#323132" transform="translate(0,0)"/>
<path d="" fill="#323231" transform="translate(0,0)"/>
<path d="" fill="#323131" transform="translate(0,0)"/>
<path d="" fill="#343232" transform="translate(0,0)"/>
<path d="" fill="#313130" transform="translate(0,0)"/>
<path d="" fill="#323230" transform="translate(0,0)"/>
<path d="" fill="#323232" transform="translate(0,0)"/>
<path d="" fill="#323130" transform="translate(0,0)"/>
<path d="" fill="#313030" transform="translate(0,0)"/>
<path d="" fill="#302F30" transform="translate(0,0)"/>
<path d="" fill="#31302F" transform="translate(0,0)"/>
<path d="" fill="#313131" transform="translate(0,0)"/>
<path d="" fill="#323131" transform="translate(0,0)"/>
<path d="" fill="#333131" transform="translate(0,0)"/>
<path d="" fill="#313030" transform="translate(0,0)"/>
<path d="" fill="#30302F" transform="translate(0,0)"/>
<path d="" fill="#2F2F31" transform="translate(0,0)"/>
<path d="" fill="#322F33" transform="translate(0,0)"/>
<path d="" fill="#313232" transform="translate(0,0)"/>
<path d="" fill="#312F31" transform="translate(0,0)"/>
<path d="" fill="#2F2F30" transform="translate(0,0)"/>
<path d="" fill="#333130" transform="translate(0,0)"/>
<path d="" fill="#312F2F" transform="translate(0,0)"/>
<path d="" fill="#343333" transform="translate(0,0)"/>
<path d="" fill="#302F30" transform="translate(0,0)"/>
<path d="" fill="#333333" transform="translate(0,0)"/>
<path d="" fill="#33312E" transform="translate(0,0)"/>
<path d="" fill="#323132" transform="translate(0,0)"/>
<path d="" fill="#4B4B4C" transform="translate(0,0)"/>
</svg>
